<?xml version="1.0" encoding="UTF-8"?>
<svg xmlns="http://www.w3.org/2000/svg" xmlns:xlink="http://www.w3.org/1999/xlink" width="16px" height="16px" viewBox="0 0 16 16" version="1.1">
<g id="surface1">
<path style=" stroke:none;fill-rule:nonzero;fill:rgb(93.333334%,96.078432%,94.509804%);fill-opacity:1;" d="M 0 0 C 5.28125 0 10.558594 0 16 0 C 16 5.28125 16 10.558594 16 16 C 10.71875 16 5.441406 16 0 16 C 0 10.71875 0 5.441406 0 0 Z M 0 0 "/>
<path style=" stroke:none;fill-rule:nonzero;fill:rgb(17.254902%,68.235296%,45.882353%);fill-opacity:1;" d="M 4.976562 5.152344 C 5 5.152344 5.027344 5.152344 5.050781 5.152344 C 5.121094 5.152344 5.1875 5.152344 5.257812 5.152344 C 5.328125 5.152344 5.402344 5.152344 5.472656 5.152344 C 5.609375 5.152344 5.742188 5.152344 5.878906 5.152344 C 6.035156 5.152344 6.1875 5.152344 6.34375 5.152344 C 6.660156 5.152344 6.980469 5.15625 7.296875 5.15625 C 7.296875 5.167969 7.296875 5.167969 7.296875 5.179688 C 7.300781 5.382812 7.300781 5.589844 7.300781 5.792969 C 7.300781 5.890625 7.304688 5.988281 7.304688 6.085938 C 7.304688 6.171875 7.304688 6.261719 7.304688 6.347656 C 7.304688 6.390625 7.304688 6.4375 7.304688 6.480469 C 7.304688 6.535156 7.304688 6.585938 7.308594 6.636719 C 7.308594 6.648438 7.308594 6.664062 7.308594 6.679688 C 7.308594 6.929688 7.402344 7.136719 7.574219 7.320312 C 7.804688 7.542969 8.089844 7.546875 8.390625 7.546875 C 8.425781 7.546875 8.460938 7.546875 8.492188 7.546875 C 8.578125 7.546875 8.660156 7.546875 8.746094 7.546875 C 8.8125 7.546875 8.882812 7.546875 8.949219 7.546875 C 8.964844 7.546875 8.964844 7.546875 8.976562 7.546875 C 8.996094 7.546875 9.019531 7.546875 9.039062 7.546875 C 9.222656 7.546875 9.40625 7.546875 9.589844 7.546875 C 9.75 7.546875 9.90625 7.546875 10.066406 7.546875 C 10.25 7.546875 10.433594 7.546875 10.617188 7.546875 C 10.636719 7.546875 10.65625 7.546875 10.675781 7.546875 C 10.6875 7.546875 10.695312 7.546875 10.707031 7.546875 C 10.773438 7.546875 10.839844 7.546875 10.910156 7.546875 C 10.992188 7.546875 11.074219 7.546875 11.15625 7.546875 C 11.199219 7.546875 11.242188 7.546875 11.285156 7.546875 C 11.328125 7.546875 11.375 7.546875 11.421875 7.546875 C 11.441406 7.546875 11.441406 7.546875 11.460938 7.546875 C 11.589844 7.542969 11.714844 7.515625 11.828125 7.457031 C 11.835938 7.453125 11.847656 7.449219 11.855469 7.441406 C 11.972656 7.382812 12.066406 7.308594 12.132812 7.191406 C 12.136719 7.183594 12.140625 7.179688 12.148438 7.171875 C 12.15625 7.171875 12.164062 7.171875 12.171875 7.171875 C 12.171875 7.515625 12.175781 7.859375 12.175781 8.203125 C 12.175781 8.363281 12.175781 8.523438 12.175781 8.683594 C 12.175781 8.820312 12.175781 8.960938 12.175781 9.101562 C 12.175781 9.175781 12.175781 9.246094 12.175781 9.320312 C 12.179688 9.914062 12.179688 9.914062 12.121094 10.15625 C 12.117188 10.175781 12.113281 10.199219 12.105469 10.21875 C 12.039062 10.519531 11.867188 10.796875 11.660156 11.023438 C 11.652344 11.035156 11.644531 11.042969 11.636719 11.050781 C 11.414062 11.320312 11.078125 11.519531 10.742188 11.609375 C 10.726562 11.609375 10.710938 11.609375 10.691406 11.609375 C 10.691406 11.621094 10.691406 11.628906 10.691406 11.636719 C 10.457031 11.691406 10.21875 11.691406 9.980469 11.691406 C 9.933594 11.691406 9.882812 11.691406 9.835938 11.691406 C 9.753906 11.691406 9.671875 11.691406 9.589844 11.691406 C 9.472656 11.691406 9.351562 11.691406 9.234375 11.691406 C 9.039062 11.691406 8.847656 11.691406 8.65625 11.6875 C 8.46875 11.6875 8.28125 11.6875 8.09375 11.6875 C 8.082031 11.6875 8.070312 11.6875 8.058594 11.6875 C 8 11.6875 7.941406 11.6875 7.882812 11.6875 C 7.402344 11.6875 6.921875 11.6875 6.445312 11.6875 C 6.441406 11.695312 6.4375 11.703125 6.433594 11.710938 C 6.410156 11.75 6.378906 11.777344 6.347656 11.804688 C 6.332031 11.820312 6.316406 11.832031 6.300781 11.847656 C 6.292969 11.855469 6.285156 11.859375 6.277344 11.867188 C 6.230469 11.910156 6.1875 11.953125 6.144531 11.996094 C 6.070312 12.0625 5.996094 12.132812 5.921875 12.199219 C 5.839844 12.273438 5.757812 12.351562 5.679688 12.425781 C 5.554688 12.542969 5.433594 12.65625 5.308594 12.773438 C 5.296875 12.78125 5.285156 12.792969 5.273438 12.804688 C 5.265625 12.8125 5.253906 12.820312 5.242188 12.832031 C 5.234375 12.839844 5.226562 12.847656 5.21875 12.855469 C 5.167969 12.894531 5.113281 12.890625 5.050781 12.886719 C 4.984375 12.863281 4.957031 12.832031 4.925781 12.773438 C 4.921875 12.734375 4.917969 12.703125 4.917969 12.664062 C 4.917969 12.652344 4.917969 12.640625 4.917969 12.632812 C 4.917969 12.597656 4.917969 12.5625 4.921875 12.527344 C 4.921875 12.503906 4.921875 12.480469 4.921875 12.453125 C 4.921875 12.390625 4.921875 12.328125 4.921875 12.265625 C 4.921875 12.199219 4.921875 12.132812 4.921875 12.070312 C 4.921875 11.941406 4.925781 11.816406 4.925781 11.6875 C 4.917969 11.6875 4.910156 11.6875 4.902344 11.6875 C 4.867188 11.6875 4.832031 11.6875 4.796875 11.6875 C 4.785156 11.6875 4.773438 11.6875 4.761719 11.6875 C 4.546875 11.6875 4.304688 11.652344 4.121094 11.535156 C 4.101562 11.527344 4.082031 11.519531 4.0625 11.515625 C 3.628906 11.363281 3.304688 10.964844 3.085938 10.578125 C 3.082031 10.566406 3.082031 10.566406 3.074219 10.550781 C 3.015625 10.449219 2.980469 10.335938 2.949219 10.222656 C 2.945312 10.203125 2.945312 10.203125 2.9375 10.183594 C 2.882812 9.972656 2.878906 9.757812 2.878906 9.542969 C 2.878906 9.515625 2.878906 9.488281 2.878906 9.457031 C 2.878906 9.382812 2.878906 9.308594 2.878906 9.234375 C 2.878906 9.15625 2.878906 9.078125 2.878906 9 C 2.878906 8.871094 2.878906 8.738281 2.878906 8.609375 C 2.878906 8.457031 2.878906 8.304688 2.878906 8.15625 C 2.878906 8.023438 2.878906 7.894531 2.878906 7.765625 C 2.878906 7.6875 2.878906 7.609375 2.878906 7.53125 C 2.878906 7.457031 2.878906 7.386719 2.878906 7.3125 C 2.878906 7.285156 2.878906 7.257812 2.878906 7.234375 C 2.878906 7.027344 2.890625 6.832031 2.949219 6.636719 C 2.949219 6.625 2.953125 6.617188 2.953125 6.609375 C 3.054688 6.273438 3.234375 6.007812 3.46875 5.753906 C 3.476562 5.746094 3.484375 5.738281 3.492188 5.730469 C 3.738281 5.46875 4.089844 5.292969 4.433594 5.203125 C 4.460938 5.195312 4.492188 5.1875 4.519531 5.179688 C 4.667969 5.144531 4.824219 5.152344 4.976562 5.152344 Z M 4.976562 5.152344 "/>
<path style=" stroke:none;fill-rule:nonzero;fill:rgb(45.09804%,82.352942%,64.313728%);fill-opacity:1;" d="M 8.15625 3.582031 C 8.179688 3.582031 8.179688 3.582031 8.203125 3.582031 C 8.25 3.582031 8.300781 3.582031 8.347656 3.582031 C 8.382812 3.582031 8.417969 3.582031 8.453125 3.582031 C 8.539062 3.582031 8.625 3.582031 8.710938 3.582031 C 8.78125 3.582031 8.847656 3.582031 8.917969 3.582031 C 9.117188 3.582031 9.3125 3.582031 9.511719 3.582031 C 9.519531 3.582031 9.53125 3.582031 9.542969 3.582031 C 9.554688 3.582031 9.5625 3.582031 9.574219 3.582031 C 9.746094 3.582031 9.917969 3.582031 10.09375 3.578125 C 10.269531 3.578125 10.445312 3.578125 10.625 3.578125 C 10.722656 3.578125 10.820312 3.578125 10.921875 3.578125 C 11.007812 3.578125 11.089844 3.578125 11.175781 3.578125 C 11.21875 3.578125 11.261719 3.578125 11.304688 3.578125 C 11.351562 3.578125 11.398438 3.578125 11.445312 3.578125 C 11.460938 3.578125 11.472656 3.578125 11.488281 3.578125 C 11.578125 3.578125 11.652344 3.601562 11.738281 3.636719 C 11.738281 3.644531 11.738281 3.652344 11.738281 3.660156 C 11.746094 3.664062 11.757812 3.667969 11.765625 3.671875 C 11.886719 3.722656 11.949219 3.824219 12.003906 3.9375 C 12.03125 4.015625 12.035156 4.089844 12.035156 4.167969 C 12.035156 4.179688 12.035156 4.191406 12.035156 4.203125 C 12.035156 4.238281 12.035156 4.277344 12.035156 4.3125 C 12.035156 4.339844 12.035156 4.367188 12.035156 4.390625 C 12.035156 4.464844 12.035156 4.535156 12.035156 4.609375 C 12.035156 4.652344 12.035156 4.699219 12.035156 4.742188 C 12.035156 4.898438 12.035156 5.054688 12.035156 5.210938 C 12.035156 5.359375 12.035156 5.503906 12.035156 5.652344 C 12.035156 5.777344 12.035156 5.902344 12.035156 6.027344 C 12.035156 6.101562 12.035156 6.175781 12.035156 6.25 C 12.035156 6.320312 12.035156 6.390625 12.035156 6.464844 C 12.035156 6.488281 12.035156 6.515625 12.035156 6.539062 C 12.035156 6.574219 12.035156 6.609375 12.035156 6.644531 C 12.035156 6.65625 12.035156 6.667969 12.035156 6.675781 C 12.035156 6.835938 11.976562 6.988281 11.867188 7.105469 C 11.757812 7.195312 11.640625 7.261719 11.496094 7.261719 C 11.484375 7.261719 11.472656 7.261719 11.460938 7.261719 C 11.445312 7.261719 11.433594 7.261719 11.417969 7.261719 C 11.40625 7.261719 11.390625 7.261719 11.375 7.261719 C 11.328125 7.261719 11.277344 7.261719 11.230469 7.261719 C 11.195312 7.261719 11.160156 7.261719 11.125 7.261719 C 11.023438 7.261719 10.917969 7.261719 10.816406 7.261719 C 10.765625 7.261719 10.71875 7.261719 10.667969 7.261719 C 10.503906 7.261719 10.34375 7.261719 10.179688 7.261719 C 10.136719 7.265625 10.09375 7.265625 10.050781 7.265625 C 10.042969 7.265625 10.03125 7.265625 10.019531 7.265625 C 9.851562 7.265625 9.679688 7.265625 9.511719 7.265625 C 9.335938 7.265625 9.160156 7.265625 8.988281 7.265625 C 8.890625 7.265625 8.789062 7.265625 8.691406 7.265625 C 8.609375 7.265625 8.527344 7.265625 8.441406 7.265625 C 8.398438 7.265625 8.355469 7.265625 8.316406 7.265625 C 8.269531 7.265625 8.222656 7.265625 8.175781 7.265625 C 8.15625 7.265625 8.15625 7.265625 8.136719 7.265625 C 7.976562 7.265625 7.867188 7.207031 7.75 7.101562 C 7.632812 6.972656 7.578125 6.839844 7.578125 6.664062 C 7.578125 6.65625 7.578125 6.644531 7.578125 6.632812 C 7.578125 6.59375 7.578125 6.558594 7.578125 6.523438 C 7.578125 6.496094 7.578125 6.46875 7.578125 6.441406 C 7.578125 6.371094 7.578125 6.296875 7.578125 6.226562 C 7.578125 6.183594 7.578125 6.136719 7.578125 6.09375 C 7.578125 5.933594 7.578125 5.777344 7.578125 5.621094 C 7.578125 5.476562 7.578125 5.328125 7.578125 5.183594 C 7.574219 5.058594 7.574219 4.933594 7.574219 4.808594 C 7.574219 4.734375 7.574219 4.65625 7.574219 4.582031 C 7.574219 4.511719 7.574219 4.441406 7.574219 4.371094 C 7.574219 4.34375 7.574219 4.320312 7.574219 4.292969 C 7.574219 4.257812 7.574219 4.222656 7.574219 4.1875 C 7.574219 4.175781 7.574219 4.167969 7.574219 4.15625 C 7.578125 3.980469 7.636719 3.855469 7.753906 3.726562 C 7.875 3.617188 8 3.582031 8.15625 3.582031 Z M 8.15625 3.582031 "/>
<path style=" stroke:none;fill-rule:nonzero;fill:rgb(0%,0%,0%);fill-opacity:1;" d="M 0 0 C 2.421875 0 4.84375 0 7.335938 0 C 7.335938 0.0078125 7.335938 0.015625 7.335938 0.0273438 C 7.328125 0.0273438 7.320312 0.0273438 7.3125 0.0273438 C 7.273438 0.0273438 7.234375 0.0273438 7.199219 0.03125 C 7.183594 0.03125 7.171875 0.03125 7.160156 0.03125 C 7.140625 0.03125 7.140625 0.03125 7.121094 0.03125 C 7.105469 0.0351562 7.105469 0.0351562 7.085938 0.0351562 C 7.050781 0.0351562 7.050781 0.0351562 7.015625 0.0625 C 6.980469 0.0664062 6.945312 0.0703125 6.910156 0.0703125 C 6.828125 0.0703125 6.828125 0.0703125 6.75 0.101562 C 6.714844 0.105469 6.714844 0.105469 6.675781 0.109375 C 6.632812 0.109375 6.632812 0.109375 6.597656 0.128906 C 6.558594 0.132812 6.519531 0.136719 6.480469 0.140625 C 6.425781 0.148438 6.378906 0.160156 6.328125 0.179688 C 6.292969 0.179688 6.261719 0.179688 6.226562 0.179688 C 6.226562 0.1875 6.226562 0.195312 6.226562 0.203125 C 6.191406 0.203125 6.160156 0.203125 6.125 0.203125 C 6.125 0.210938 6.125 0.222656 6.125 0.230469 C 6.113281 0.230469 6.097656 0.234375 6.085938 0.234375 C 6.070312 0.238281 6.054688 0.238281 6.035156 0.242188 C 6.019531 0.242188 6.003906 0.246094 5.988281 0.246094 C 5.945312 0.25 5.945312 0.25 5.921875 0.28125 C 5.890625 0.289062 5.890625 0.289062 5.851562 0.292969 C 5.816406 0.300781 5.78125 0.304688 5.746094 0.320312 C 5.714844 0.332031 5.714844 0.332031 5.664062 0.332031 C 5.664062 0.339844 5.664062 0.347656 5.664062 0.355469 C 5.632812 0.367188 5.605469 0.375 5.574219 0.382812 C 5.558594 0.386719 5.558594 0.386719 5.546875 0.390625 C 5.5 0.402344 5.457031 0.410156 5.410156 0.410156 C 5.410156 0.417969 5.410156 0.425781 5.410156 0.433594 C 5.390625 0.441406 5.390625 0.441406 5.371094 0.445312 C 5.285156 0.476562 5.199219 0.503906 5.117188 0.535156 C 5.097656 0.542969 5.097656 0.542969 5.074219 0.550781 C 5.0625 0.554688 5.046875 0.5625 5.03125 0.566406 C 5.015625 0.574219 5.003906 0.578125 4.988281 0.582031 C 4.949219 0.597656 4.949219 0.597656 4.917969 0.621094 C 4.886719 0.636719 4.859375 0.644531 4.824219 0.652344 C 4.816406 0.65625 4.804688 0.65625 4.792969 0.660156 C 4.789062 0.660156 4.78125 0.660156 4.773438 0.664062 C 4.773438 0.671875 4.773438 0.679688 4.773438 0.6875 C 4.765625 0.691406 4.757812 0.695312 4.75 0.695312 C 4.640625 0.738281 4.535156 0.792969 4.433594 0.847656 C 4.367188 0.878906 4.367188 0.878906 4.324219 0.878906 C 4.320312 0.894531 4.316406 0.90625 4.3125 0.917969 C 4.292969 0.917969 4.269531 0.917969 4.25 0.917969 C 4.25 0.925781 4.25 0.933594 4.25 0.945312 C 4.238281 0.949219 4.230469 0.953125 4.21875 0.960938 C 4.207031 0.964844 4.195312 0.972656 4.183594 0.980469 C 4.171875 0.988281 4.15625 0.992188 4.144531 1 C 4.121094 1.015625 4.097656 1.027344 4.074219 1.042969 C 4.042969 1.058594 4.042969 1.058594 4.019531 1.058594 C 4.019531 1.066406 4.019531 1.074219 4.019531 1.085938 C 4.003906 1.089844 4.003906 1.089844 3.992188 1.09375 C 3.882812 1.140625 3.785156 1.207031 3.695312 1.277344 C 3.664062 1.300781 3.628906 1.320312 3.597656 1.339844 C 3.582031 1.351562 3.566406 1.363281 3.550781 1.375 C 3.507812 1.410156 3.460938 1.4375 3.414062 1.464844 C 3.390625 1.480469 3.390625 1.480469 3.382812 1.503906 C 3.371094 1.507812 3.359375 1.511719 3.351562 1.515625 C 3.316406 1.527344 3.316406 1.527344 3.296875 1.554688 C 3.277344 1.582031 3.277344 1.582031 3.25 1.59375 C 3.210938 1.605469 3.210938 1.605469 3.183594 1.640625 C 3.171875 1.652344 3.160156 1.660156 3.152344 1.671875 C 3.140625 1.671875 3.125 1.671875 3.113281 1.671875 C 3.109375 1.679688 3.109375 1.6875 3.105469 1.695312 C 3.082031 1.734375 3.050781 1.75 3.011719 1.773438 C 2.996094 1.789062 2.980469 1.804688 2.964844 1.820312 C 2.933594 1.855469 2.898438 1.878906 2.859375 1.902344 C 2.851562 1.914062 2.839844 1.925781 2.832031 1.9375 C 2.8125 1.953125 2.789062 1.964844 2.769531 1.976562 C 2.75 1.996094 2.730469 2.015625 2.710938 2.035156 C 2.683594 2.066406 2.660156 2.089844 2.625 2.109375 C 2.589844 2.128906 2.566406 2.152344 2.539062 2.179688 C 2.523438 2.191406 2.523438 2.191406 2.511719 2.207031 C 2.5 2.21875 2.488281 2.226562 2.480469 2.238281 C 2.46875 2.25 2.457031 2.257812 2.445312 2.269531 C 2.425781 2.292969 2.402344 2.316406 2.378906 2.335938 C 2.347656 2.371094 2.3125 2.40625 2.277344 2.441406 C 2.257812 2.460938 2.234375 2.484375 2.210938 2.503906 C 2.203125 2.515625 2.191406 2.523438 2.183594 2.535156 C 2.171875 2.546875 2.164062 2.554688 2.152344 2.566406 C 2.144531 2.574219 2.136719 2.582031 2.128906 2.589844 C 2.101562 2.617188 2.085938 2.648438 2.066406 2.679688 C 2.035156 2.710938 2.003906 2.742188 1.96875 2.773438 C 1.941406 2.804688 1.921875 2.835938 1.902344 2.871094 C 1.882812 2.882812 1.867188 2.894531 1.851562 2.910156 C 1.84375 2.917969 1.839844 2.929688 1.832031 2.9375 C 1.808594 2.976562 1.785156 3 1.753906 3.027344 C 1.734375 3.050781 1.734375 3.050781 1.71875 3.082031 C 1.6875 3.125 1.652344 3.160156 1.617188 3.199219 C 1.59375 3.226562 1.585938 3.246094 1.582031 3.277344 C 1.574219 3.277344 1.566406 3.277344 1.554688 3.277344 C 1.546875 3.296875 1.539062 3.3125 1.53125 3.332031 C 1.523438 3.332031 1.515625 3.332031 1.503906 3.332031 C 1.503906 3.347656 1.503906 3.363281 1.503906 3.382812 C 1.496094 3.382812 1.488281 3.382812 1.480469 3.382812 C 1.476562 3.390625 1.476562 3.390625 1.46875 3.402344 C 1.4375 3.464844 1.394531 3.519531 1.355469 3.578125 C 1.339844 3.59375 1.328125 3.617188 1.316406 3.636719 C 1.3125 3.644531 1.308594 3.652344 1.300781 3.660156 C 1.292969 3.660156 1.285156 3.660156 1.277344 3.660156 C 1.273438 3.667969 1.273438 3.675781 1.273438 3.683594 C 1.261719 3.71875 1.246094 3.746094 1.226562 3.777344 C 1.203125 3.816406 1.179688 3.855469 1.15625 3.894531 C 1.136719 3.929688 1.136719 3.929688 1.109375 3.957031 C 1.101562 3.980469 1.101562 3.980469 1.097656 4.007812 C 1.089844 4.007812 1.082031 4.007812 1.070312 4.007812 C 1.066406 4.027344 1.0625 4.046875 1.058594 4.070312 C 1.050781 4.070312 1.042969 4.070312 1.035156 4.070312 C 1.03125 4.082031 1.027344 4.089844 1.023438 4.101562 C 1.007812 4.148438 0.984375 4.183594 0.960938 4.222656 C 0.9375 4.261719 0.921875 4.296875 0.90625 4.339844 C 0.898438 4.355469 0.890625 4.371094 0.882812 4.386719 C 0.878906 4.402344 0.875 4.414062 0.867188 4.425781 C 0.859375 4.425781 0.851562 4.425781 0.84375 4.425781 C 0.839844 4.433594 0.835938 4.441406 0.835938 4.449219 C 0.816406 4.507812 0.792969 4.5625 0.765625 4.617188 C 0.695312 4.75 0.695312 4.75 0.652344 4.886719 C 0.640625 4.886719 0.632812 4.886719 0.625 4.886719 C 0.621094 4.894531 0.621094 4.90625 0.617188 4.917969 C 0.613281 4.929688 0.609375 4.941406 0.605469 4.953125 C 0.601562 4.972656 0.601562 4.972656 0.597656 4.992188 C 0.589844 5.015625 0.582031 5.042969 0.574219 5.066406 C 0.566406 5.066406 0.558594 5.066406 0.546875 5.066406 C 0.546875 5.074219 0.546875 5.085938 0.542969 5.097656 C 0.535156 5.152344 0.515625 5.199219 0.5 5.25 C 0.496094 5.261719 0.492188 5.269531 0.488281 5.28125 C 0.472656 5.320312 0.460938 5.355469 0.445312 5.394531 C 0.433594 5.425781 0.425781 5.453125 0.421875 5.488281 C 0.414062 5.488281 0.402344 5.488281 0.394531 5.488281 C 0.394531 5.5 0.390625 5.511719 0.390625 5.527344 C 0.382812 5.570312 0.375 5.601562 0.355469 5.640625 C 0.351562 5.65625 0.347656 5.675781 0.34375 5.695312 C 0.335938 5.742188 0.320312 5.785156 0.300781 5.832031 C 0.289062 5.867188 0.285156 5.898438 0.28125 5.933594 C 0.273438 5.933594 0.265625 5.933594 0.253906 5.933594 C 0.253906 5.949219 0.253906 5.960938 0.257812 5.976562 C 0.253906 6.023438 0.253906 6.023438 0.242188 6.035156 C 0.242188 6.050781 0.238281 6.066406 0.234375 6.078125 C 0.230469 6.125 0.230469 6.125 0.21875 6.136719 C 0.210938 6.171875 0.207031 6.207031 0.203125 6.238281 C 0.191406 6.339844 0.191406 6.339844 0.179688 6.355469 C 0.175781 6.378906 0.171875 6.40625 0.171875 6.429688 C 0.164062 6.457031 0.164062 6.457031 0.140625 6.496094 C 0.117188 6.578125 0.113281 6.660156 0.105469 6.746094 C 0.101562 6.773438 0.101562 6.773438 0.078125 6.8125 C 0.0742188 6.847656 0.0703125 6.882812 0.0703125 6.914062 C 0.0664062 7.011719 0.0664062 7.011719 0.0390625 7.054688 C 0.0351562 7.085938 0.0351562 7.085938 0.03125 7.121094 C 0.03125 7.132812 0.03125 7.144531 0.03125 7.160156 C 0.03125 7.171875 0.03125 7.183594 0.03125 7.199219 C 0.03125 7.210938 0.03125 7.226562 0.0273438 7.238281 C 0.0273438 7.269531 0.0273438 7.304688 0.0273438 7.335938 C 0.015625 7.335938 0.0078125 7.335938 0 7.335938 C 0 4.914062 0 2.496094 0 0 Z M 0 0 "/>
<path style=" stroke:none;fill-rule:nonzero;fill:rgb(0%,0%,0%);fill-opacity:1;" d="M 8.664062 0 C 11.085938 0 13.503906 0 16 0 C 16 2.421875 16 4.84375 16 7.335938 C 15.992188 7.335938 15.984375 7.335938 15.972656 7.335938 C 15.972656 7.328125 15.972656 7.320312 15.972656 7.308594 C 15.972656 7.269531 15.972656 7.230469 15.96875 7.191406 C 15.96875 7.175781 15.96875 7.164062 15.96875 7.148438 C 15.96875 7.128906 15.96875 7.128906 15.96875 7.109375 C 15.964844 7.097656 15.964844 7.085938 15.964844 7.074219 C 15.964844 7.039062 15.964844 7.039062 15.9375 7.015625 C 15.933594 6.992188 15.933594 6.992188 15.929688 6.960938 C 15.929688 6.945312 15.929688 6.945312 15.929688 6.929688 C 15.929688 6.917969 15.929688 6.90625 15.929688 6.894531 C 15.925781 6.878906 15.925781 6.878906 15.925781 6.859375 C 15.925781 6.832031 15.925781 6.804688 15.921875 6.773438 C 15.914062 6.773438 15.90625 6.773438 15.898438 6.773438 C 15.898438 6.761719 15.894531 6.75 15.894531 6.738281 C 15.894531 6.722656 15.894531 6.707031 15.890625 6.691406 C 15.890625 6.679688 15.890625 6.664062 15.890625 6.648438 C 15.890625 6.609375 15.890625 6.609375 15.871094 6.597656 C 15.867188 6.5625 15.867188 6.53125 15.863281 6.496094 C 15.863281 6.46875 15.863281 6.46875 15.847656 6.457031 C 15.84375 6.429688 15.839844 6.402344 15.835938 6.378906 C 15.835938 6.355469 15.835938 6.355469 15.820312 6.339844 C 15.820312 6.308594 15.820312 6.273438 15.820312 6.238281 C 15.8125 6.238281 15.804688 6.238281 15.796875 6.238281 C 15.796875 6.203125 15.796875 6.164062 15.796875 6.125 C 15.789062 6.125 15.777344 6.125 15.769531 6.125 C 15.769531 6.089844 15.769531 6.058594 15.769531 6.023438 C 15.761719 6.023438 15.753906 6.023438 15.746094 6.023438 C 15.746094 5.992188 15.746094 5.964844 15.746094 5.933594 C 15.738281 5.933594 15.726562 5.933594 15.71875 5.933594 C 15.714844 5.878906 15.710938 5.824219 15.707031 5.765625 C 15.699219 5.765625 15.691406 5.765625 15.679688 5.765625 C 15.679688 5.746094 15.679688 5.726562 15.679688 5.703125 C 15.671875 5.703125 15.664062 5.703125 15.65625 5.703125 C 15.648438 5.675781 15.644531 5.648438 15.636719 5.625 C 15.632812 5.601562 15.632812 5.601562 15.625 5.578125 C 15.617188 5.539062 15.617188 5.539062 15.617188 5.488281 C 15.609375 5.488281 15.601562 5.488281 15.589844 5.488281 C 15.589844 5.480469 15.589844 5.472656 15.585938 5.464844 C 15.585938 5.453125 15.582031 5.441406 15.582031 5.433594 C 15.578125 5.421875 15.578125 5.410156 15.574219 5.402344 C 15.566406 5.371094 15.566406 5.371094 15.550781 5.34375 C 15.539062 5.3125 15.539062 5.289062 15.539062 5.257812 C 15.53125 5.257812 15.523438 5.257812 15.515625 5.257812 C 15.511719 5.222656 15.507812 5.1875 15.503906 5.15625 C 15.492188 5.15625 15.484375 5.15625 15.476562 5.15625 C 15.476562 5.148438 15.472656 5.140625 15.46875 5.128906 C 15.449219 5.054688 15.421875 4.984375 15.386719 4.914062 C 15.378906 4.890625 15.371094 4.871094 15.359375 4.851562 C 15.355469 4.84375 15.351562 4.832031 15.347656 4.824219 C 15.339844 4.804688 15.332031 4.785156 15.324219 4.765625 C 15.3125 4.734375 15.296875 4.703125 15.277344 4.667969 C 15.261719 4.640625 15.25 4.609375 15.234375 4.578125 C 15.210938 4.519531 15.183594 4.464844 15.15625 4.410156 C 15.121094 4.339844 15.121094 4.339844 15.121094 4.3125 C 15.109375 4.3125 15.101562 4.3125 15.09375 4.3125 C 15.089844 4.300781 15.085938 4.289062 15.078125 4.28125 C 15.035156 4.183594 15.035156 4.183594 14.988281 4.09375 C 14.964844 4.058594 14.964844 4.058594 14.964844 4.03125 C 14.957031 4.03125 14.949219 4.03125 14.941406 4.03125 C 14.910156 3.976562 14.894531 3.925781 14.878906 3.867188 C 14.867188 3.867188 14.859375 3.867188 14.851562 3.867188 C 14.832031 3.839844 14.832031 3.839844 14.8125 3.804688 C 14.792969 3.765625 14.769531 3.734375 14.738281 3.699219 C 14.722656 3.679688 14.710938 3.65625 14.699219 3.636719 C 14.6875 3.613281 14.671875 3.59375 14.660156 3.570312 C 14.652344 3.558594 14.648438 3.550781 14.640625 3.539062 C 14.625 3.511719 14.605469 3.492188 14.582031 3.46875 C 14.570312 3.449219 14.558594 3.429688 14.546875 3.40625 C 14.535156 3.398438 14.527344 3.390625 14.519531 3.382812 C 14.519531 3.363281 14.519531 3.347656 14.519531 3.332031 C 14.511719 3.328125 14.503906 3.324219 14.496094 3.320312 C 14.46875 3.304688 14.46875 3.304688 14.445312 3.277344 C 14.445312 3.261719 14.445312 3.246094 14.445312 3.226562 C 14.4375 3.226562 14.429688 3.222656 14.421875 3.21875 C 14.386719 3.199219 14.375 3.179688 14.351562 3.152344 C 14.328125 3.113281 14.328125 3.113281 14.289062 3.085938 C 14.289062 3.078125 14.285156 3.070312 14.28125 3.0625 C 14.261719 3.015625 14.230469 2.988281 14.195312 2.957031 C 14.175781 2.933594 14.175781 2.933594 14.175781 2.894531 C 14.167969 2.894531 14.160156 2.890625 14.152344 2.886719 C 14.113281 2.863281 14.09375 2.84375 14.070312 2.804688 C 14.046875 2.765625 14.015625 2.738281 13.984375 2.703125 C 13.941406 2.664062 13.910156 2.628906 13.882812 2.578125 C 13.847656 2.53125 13.808594 2.488281 13.761719 2.449219 C 13.714844 2.410156 13.671875 2.367188 13.628906 2.324219 C 13.621094 2.316406 13.617188 2.3125 13.609375 2.304688 C 13.582031 2.277344 13.554688 2.25 13.527344 2.222656 C 13.507812 2.199219 13.488281 2.179688 13.464844 2.160156 C 13.460938 2.152344 13.453125 2.148438 13.449219 2.140625 C 13.414062 2.105469 13.378906 2.078125 13.332031 2.054688 C 13.316406 2.039062 13.296875 2.019531 13.28125 2.003906 C 13.246094 1.964844 13.210938 1.941406 13.167969 1.914062 C 13.160156 1.90625 13.15625 1.898438 13.148438 1.890625 C 13.125 1.859375 13.097656 1.84375 13.0625 1.828125 C 13.027344 1.804688 13.007812 1.773438 12.980469 1.742188 C 12.957031 1.714844 12.929688 1.699219 12.898438 1.683594 C 12.851562 1.652344 12.808594 1.625 12.773438 1.582031 C 12.773438 1.574219 12.773438 1.566406 12.773438 1.554688 C 12.761719 1.554688 12.753906 1.554688 12.742188 1.554688 C 12.699219 1.542969 12.6875 1.523438 12.65625 1.492188 C 12.636719 1.480469 12.613281 1.46875 12.59375 1.453125 C 12.585938 1.445312 12.578125 1.4375 12.566406 1.429688 C 12.550781 1.421875 12.550781 1.421875 12.535156 1.417969 C 12.503906 1.402344 12.492188 1.390625 12.464844 1.363281 C 12.457031 1.359375 12.445312 1.351562 12.433594 1.347656 C 12.402344 1.328125 12.402344 1.328125 12.382812 1.308594 C 12.359375 1.285156 12.339844 1.273438 12.308594 1.261719 C 12.300781 1.257812 12.292969 1.253906 12.28125 1.246094 C 12.277344 1.246094 12.269531 1.242188 12.261719 1.238281 C 12.261719 1.230469 12.261719 1.222656 12.261719 1.210938 C 12.253906 1.210938 12.246094 1.210938 12.238281 1.207031 C 12.207031 1.199219 12.1875 1.183594 12.160156 1.164062 C 12.101562 1.125 12.039062 1.09375 11.976562 1.0625 C 11.945312 1.046875 11.929688 1.03125 11.90625 1.007812 C 11.882812 0.996094 11.863281 0.984375 11.839844 0.976562 C 11.804688 0.957031 11.78125 0.945312 11.75 0.917969 C 11.730469 0.910156 11.710938 0.902344 11.691406 0.894531 C 11.628906 0.871094 11.570312 0.84375 11.507812 0.816406 C 11.507812 0.808594 11.507812 0.800781 11.507812 0.792969 C 11.5 0.789062 11.492188 0.789062 11.484375 0.789062 C 11.433594 0.773438 11.390625 0.75 11.34375 0.726562 C 11.246094 0.675781 11.152344 0.628906 11.042969 0.597656 C 11.011719 0.585938 11.011719 0.585938 10.980469 0.566406 C 10.945312 0.546875 10.914062 0.539062 10.875 0.527344 C 10.859375 0.523438 10.847656 0.519531 10.835938 0.515625 C 10.824219 0.515625 10.816406 0.511719 10.808594 0.511719 C 10.808594 0.5 10.808594 0.492188 10.808594 0.484375 C 10.785156 0.484375 10.785156 0.484375 10.761719 0.480469 C 10.710938 0.476562 10.671875 0.457031 10.628906 0.433594 C 10.601562 0.425781 10.570312 0.417969 10.542969 0.410156 C 10.453125 0.382812 10.367188 0.355469 10.28125 0.324219 C 10.234375 0.304688 10.191406 0.296875 10.144531 0.292969 C 10.144531 0.285156 10.144531 0.277344 10.144531 0.269531 C 10.132812 0.269531 10.121094 0.269531 10.113281 0.269531 C 10.078125 0.269531 10.078125 0.269531 10.066406 0.253906 C 10.039062 0.25 10.007812 0.246094 9.976562 0.242188 C 9.976562 0.234375 9.976562 0.226562 9.976562 0.21875 C 9.960938 0.21875 9.945312 0.21875 9.925781 0.21875 C 9.910156 0.21875 9.894531 0.21875 9.875 0.21875 C 9.871094 0.210938 9.867188 0.207031 9.863281 0.203125 C 9.824219 0.199219 9.785156 0.195312 9.746094 0.1875 C 9.691406 0.183594 9.644531 0.171875 9.59375 0.152344 C 9.5625 0.148438 9.527344 0.144531 9.496094 0.140625 C 9.484375 0.136719 9.476562 0.136719 9.46875 0.136719 C 9.445312 0.132812 9.425781 0.128906 9.402344 0.128906 C 9.402344 0.121094 9.402344 0.109375 9.402344 0.101562 C 9.386719 0.101562 9.386719 0.101562 9.367188 0.101562 C 9.34375 0.101562 9.34375 0.101562 9.320312 0.101562 C 9.308594 0.101562 9.292969 0.101562 9.277344 0.101562 C 9.238281 0.101562 9.238281 0.101562 9.210938 0.0898438 C 9.210938 0.0820312 9.210938 0.0742188 9.210938 0.0625 C 9.1875 0.0625 9.1875 0.0625 9.164062 0.0664062 C 9.140625 0.0664062 9.121094 0.0664062 9.097656 0.0664062 C 9.082031 0.0664062 9.082031 0.0664062 9.066406 0.0664062 C 9.054688 0.0664062 9.046875 0.0664062 9.035156 0.0664062 C 9.027344 0.0664062 9.015625 0.0664062 9.007812 0.0664062 C 8.984375 0.0625 8.984375 0.0625 8.957031 0.0390625 C 8.925781 0.0351562 8.925781 0.0351562 8.890625 0.03125 C 8.871094 0.03125 8.871094 0.03125 8.851562 0.03125 C 8.828125 0.03125 8.828125 0.03125 8.808594 0.03125 C 8.792969 0.03125 8.78125 0.03125 8.765625 0.0273438 C 8.730469 0.0273438 8.699219 0.0273438 8.664062 0.0273438 C 8.664062 0.015625 8.664062 0.0078125 8.664062 0 Z M 8.664062 0 "/>
<path style=" stroke:none;fill-rule:nonzero;fill:rgb(0%,0%,0%);fill-opacity:1;" d="M 0 8.675781 C 0.0078125 8.675781 0.015625 8.675781 0.0273438 8.675781 C 0.0273438 8.773438 0.0273438 8.871094 0.0273438 8.96875 C 0.0351562 8.96875 0.0429688 8.96875 0.0507812 8.96875 C 0.0742188 9.015625 0.0703125 9.074219 0.0703125 9.125 C 0.0742188 9.171875 0.0742188 9.195312 0.101562 9.238281 C 0.105469 9.273438 0.105469 9.273438 0.109375 9.316406 C 0.109375 9.363281 0.109375 9.363281 0.128906 9.402344 C 0.128906 9.421875 0.132812 9.441406 0.132812 9.460938 C 0.136719 9.574219 0.136719 9.574219 0.179688 9.671875 C 0.183594 9.707031 0.183594 9.738281 0.1875 9.773438 C 0.1875 9.785156 0.1875 9.792969 0.1875 9.804688 C 0.1875 9.828125 0.191406 9.851562 0.191406 9.875 C 0.203125 9.875 0.214844 9.875 0.230469 9.875 C 0.230469 9.894531 0.230469 9.894531 0.234375 9.917969 C 0.238281 9.933594 0.238281 9.953125 0.242188 9.96875 C 0.242188 9.980469 0.242188 9.988281 0.246094 9.996094 C 0.246094 10.042969 0.246094 10.042969 0.269531 10.078125 C 0.269531 10.105469 0.269531 10.128906 0.269531 10.15625 C 0.277344 10.15625 0.285156 10.15625 0.292969 10.15625 C 0.296875 10.171875 0.300781 10.1875 0.304688 10.203125 C 0.308594 10.222656 0.3125 10.242188 0.316406 10.261719 C 0.320312 10.269531 0.320312 10.28125 0.324219 10.289062 C 0.332031 10.332031 0.34375 10.371094 0.359375 10.410156 C 0.371094 10.4375 0.371094 10.4375 0.371094 10.488281 C 0.378906 10.488281 0.386719 10.488281 0.394531 10.488281 C 0.398438 10.527344 0.402344 10.5625 0.410156 10.601562 C 0.417969 10.601562 0.425781 10.601562 0.433594 10.601562 C 0.445312 10.636719 0.457031 10.667969 0.464844 10.703125 C 0.46875 10.710938 0.472656 10.71875 0.476562 10.730469 C 0.476562 10.738281 0.480469 10.75 0.484375 10.757812 C 0.484375 10.765625 0.488281 10.773438 0.492188 10.78125 C 0.496094 10.808594 0.496094 10.808594 0.496094 10.859375 C 0.507812 10.859375 0.515625 10.859375 0.523438 10.859375 C 0.523438 10.875 0.523438 10.890625 0.523438 10.910156 C 0.53125 10.910156 0.539062 10.910156 0.546875 10.910156 C 0.554688 10.941406 0.558594 10.976562 0.5625 11.011719 C 0.570312 11.011719 0.578125 11.011719 0.585938 11.011719 C 0.585938 11.027344 0.585938 11.042969 0.585938 11.0625 C 0.59375 11.0625 0.605469 11.0625 0.613281 11.0625 C 0.613281 11.082031 0.613281 11.105469 0.613281 11.125 C 0.621094 11.125 0.628906 11.125 0.636719 11.125 C 0.644531 11.167969 0.65625 11.210938 0.664062 11.253906 C 0.671875 11.253906 0.679688 11.253906 0.6875 11.253906 C 0.695312 11.265625 0.699219 11.277344 0.703125 11.289062 C 0.710938 11.304688 0.71875 11.320312 0.722656 11.335938 C 0.726562 11.34375 0.730469 11.351562 0.734375 11.359375 C 0.753906 11.40625 0.773438 11.449219 0.796875 11.492188 C 0.816406 11.535156 0.816406 11.535156 0.816406 11.574219 C 0.824219 11.574219 0.832031 11.574219 0.84375 11.574219 C 0.847656 11.585938 0.855469 11.601562 0.859375 11.617188 C 0.886719 11.675781 0.914062 11.730469 0.945312 11.789062 C 0.949219 11.796875 0.953125 11.804688 0.960938 11.8125 C 0.976562 11.847656 1 11.882812 1.019531 11.917969 C 1.019531 11.929688 1.019531 11.941406 1.019531 11.957031 C 1.027344 11.957031 1.039062 11.957031 1.046875 11.957031 C 1.085938 12.027344 1.085938 12.027344 1.085938 12.070312 C 1.097656 12.074219 1.109375 12.078125 1.121094 12.082031 C 1.132812 12.105469 1.140625 12.125 1.148438 12.148438 C 1.164062 12.171875 1.183594 12.199219 1.199219 12.222656 C 1.207031 12.234375 1.210938 12.242188 1.21875 12.253906 C 1.242188 12.292969 1.265625 12.328125 1.296875 12.363281 C 1.324219 12.402344 1.347656 12.445312 1.371094 12.484375 C 1.378906 12.496094 1.382812 12.507812 1.390625 12.515625 C 1.394531 12.527344 1.402344 12.539062 1.410156 12.550781 C 1.429688 12.582031 1.453125 12.605469 1.480469 12.632812 C 1.492188 12.652344 1.503906 12.675781 1.519531 12.695312 C 1.527344 12.703125 1.53125 12.707031 1.539062 12.714844 C 1.554688 12.734375 1.554688 12.734375 1.554688 12.785156 C 1.566406 12.789062 1.566406 12.789062 1.578125 12.792969 C 1.636719 12.824219 1.664062 12.871094 1.695312 12.925781 C 1.730469 12.980469 1.769531 13.023438 1.816406 13.070312 C 1.839844 13.09375 1.859375 13.125 1.875 13.15625 C 1.882812 13.160156 1.890625 13.167969 1.898438 13.175781 C 1.914062 13.191406 1.914062 13.191406 1.914062 13.230469 C 1.921875 13.234375 1.929688 13.238281 1.9375 13.242188 C 1.972656 13.261719 1.996094 13.285156 2.023438 13.3125 C 2.03125 13.320312 2.042969 13.332031 2.050781 13.339844 C 2.078125 13.371094 2.078125 13.371094 2.09375 13.398438 C 2.125 13.449219 2.167969 13.488281 2.207031 13.527344 C 2.21875 13.539062 2.226562 13.546875 2.234375 13.554688 C 2.253906 13.574219 2.273438 13.59375 2.292969 13.609375 C 2.320312 13.640625 2.347656 13.667969 2.375 13.695312 C 2.394531 13.714844 2.414062 13.730469 2.429688 13.75 C 2.4375 13.757812 2.449219 13.765625 2.457031 13.777344 C 2.539062 13.859375 2.539062 13.859375 2.636719 13.925781 C 2.667969 13.945312 2.691406 13.96875 2.71875 13.996094 C 2.71875 14.003906 2.71875 14.011719 2.71875 14.023438 C 2.734375 14.03125 2.75 14.039062 2.769531 14.046875 C 2.769531 14.054688 2.769531 14.066406 2.769531 14.074219 C 2.78125 14.074219 2.78125 14.074219 2.789062 14.074219 C 2.832031 14.089844 2.851562 14.117188 2.882812 14.148438 C 2.894531 14.15625 2.90625 14.164062 2.914062 14.167969 C 2.953125 14.191406 2.980469 14.21875 3.011719 14.253906 C 3.023438 14.261719 3.039062 14.269531 3.050781 14.277344 C 3.085938 14.304688 3.085938 14.304688 3.113281 14.339844 C 3.132812 14.355469 3.15625 14.367188 3.175781 14.378906 C 3.1875 14.386719 3.195312 14.398438 3.203125 14.40625 C 3.226562 14.433594 3.226562 14.433594 3.253906 14.4375 C 3.292969 14.445312 3.304688 14.476562 3.332031 14.507812 C 3.363281 14.527344 3.363281 14.527344 3.394531 14.546875 C 3.410156 14.558594 3.429688 14.570312 3.445312 14.582031 C 3.464844 14.597656 3.488281 14.609375 3.507812 14.621094 C 3.582031 14.667969 3.582031 14.667969 3.601562 14.691406 C 3.628906 14.714844 3.652344 14.726562 3.683594 14.738281 C 3.738281 14.757812 3.738281 14.757812 3.75 14.789062 C 3.777344 14.800781 3.777344 14.800781 3.800781 14.8125 C 3.800781 14.820312 3.800781 14.832031 3.800781 14.839844 C 3.8125 14.839844 3.820312 14.84375 3.832031 14.84375 C 3.867188 14.851562 3.867188 14.851562 3.90625 14.863281 C 3.90625 14.871094 3.90625 14.882812 3.90625 14.890625 C 3.914062 14.890625 3.921875 14.894531 3.929688 14.894531 C 3.941406 14.898438 3.941406 14.898438 3.957031 14.902344 C 3.960938 14.914062 3.964844 14.929688 3.96875 14.941406 C 3.984375 14.941406 4 14.941406 4.019531 14.941406 C 4.019531 14.949219 4.019531 14.957031 4.019531 14.964844 C 4.03125 14.96875 4.042969 14.972656 4.050781 14.976562 C 4.113281 14.996094 4.164062 15.027344 4.21875 15.058594 C 4.253906 15.078125 4.277344 15.085938 4.3125 15.09375 C 4.316406 15.101562 4.320312 15.109375 4.324219 15.121094 C 4.34375 15.128906 4.363281 15.136719 4.386719 15.144531 C 4.433594 15.167969 4.480469 15.191406 4.527344 15.214844 C 4.554688 15.230469 4.582031 15.242188 4.613281 15.253906 C 4.65625 15.273438 4.699219 15.292969 4.742188 15.316406 C 4.824219 15.359375 4.910156 15.386719 5 15.414062 C 5 15.421875 5 15.429688 5 15.4375 C 5.011719 15.441406 5.023438 15.441406 5.035156 15.441406 C 5.082031 15.453125 5.125 15.46875 5.171875 15.484375 C 5.179688 15.488281 5.1875 15.488281 5.195312 15.492188 C 5.21875 15.5 5.238281 15.507812 5.257812 15.515625 C 5.257812 15.523438 5.257812 15.53125 5.257812 15.539062 C 5.277344 15.542969 5.277344 15.542969 5.300781 15.542969 C 5.371094 15.554688 5.4375 15.578125 5.507812 15.605469 C 5.632812 15.652344 5.757812 15.695312 5.894531 15.714844 C 5.921875 15.71875 5.921875 15.71875 5.945312 15.746094 C 5.976562 15.75 6.007812 15.753906 6.035156 15.757812 C 6.054688 15.761719 6.070312 15.761719 6.085938 15.765625 C 6.097656 15.765625 6.113281 15.769531 6.125 15.769531 C 6.125 15.777344 6.125 15.789062 6.125 15.796875 C 6.144531 15.796875 6.144531 15.796875 6.167969 15.796875 C 6.214844 15.796875 6.214844 15.796875 6.226562 15.808594 C 6.25 15.8125 6.273438 15.8125 6.300781 15.816406 C 6.328125 15.820312 6.328125 15.820312 6.363281 15.832031 C 6.414062 15.847656 6.460938 15.855469 6.511719 15.859375 C 6.519531 15.863281 6.53125 15.863281 6.539062 15.863281 C 6.5625 15.867188 6.585938 15.871094 6.609375 15.871094 C 6.609375 15.878906 6.609375 15.890625 6.609375 15.898438 C 6.617188 15.898438 6.628906 15.898438 6.636719 15.898438 C 6.65625 15.898438 6.65625 15.898438 6.675781 15.894531 C 6.695312 15.894531 6.695312 15.894531 6.714844 15.894531 C 6.75 15.898438 6.75 15.898438 6.773438 15.910156 C 6.824219 15.933594 6.882812 15.929688 6.941406 15.929688 C 6.988281 15.933594 7.015625 15.933594 7.054688 15.960938 C 7.085938 15.964844 7.085938 15.964844 7.121094 15.96875 C 7.132812 15.96875 7.144531 15.96875 7.160156 15.96875 C 7.171875 15.96875 7.183594 15.96875 7.199219 15.96875 C 7.210938 15.96875 7.226562 15.96875 7.238281 15.972656 C 7.269531 15.972656 7.304688 15.972656 7.335938 15.972656 C 7.335938 15.984375 7.335938 15.992188 7.335938 16 C 4.914062 16 2.496094 16 0 16 C 0 13.582031 0 11.167969 0 8.675781 Z M 0 8.675781 "/>
<path style=" stroke:none;fill-rule:nonzero;fill:rgb(0%,0%,0%);fill-opacity:1;" d="M 15.972656 8.675781 C 15.984375 8.675781 15.992188 8.675781 16 8.675781 C 16 11.09375 16 13.511719 16 16 C 13.578125 16 11.15625 16 8.664062 16 C 8.664062 15.992188 8.664062 15.984375 8.664062 15.972656 C 8.671875 15.972656 8.679688 15.972656 8.6875 15.972656 C 8.726562 15.972656 8.765625 15.972656 8.800781 15.96875 C 8.816406 15.96875 8.828125 15.96875 8.839844 15.96875 C 8.859375 15.96875 8.859375 15.96875 8.878906 15.96875 C 8.890625 15.964844 8.902344 15.964844 8.914062 15.964844 C 8.949219 15.964844 8.949219 15.964844 8.984375 15.9375 C 9.027344 15.933594 9.074219 15.929688 9.121094 15.929688 C 9.171875 15.925781 9.195312 15.925781 9.238281 15.898438 C 9.265625 15.894531 9.289062 15.894531 9.316406 15.890625 C 9.378906 15.886719 9.433594 15.878906 9.492188 15.859375 C 9.53125 15.859375 9.570312 15.859375 9.609375 15.859375 C 9.609375 15.851562 9.609375 15.84375 9.609375 15.835938 C 9.621094 15.832031 9.621094 15.832031 9.632812 15.832031 C 9.664062 15.824219 9.699219 15.820312 9.734375 15.816406 C 9.746094 15.8125 9.757812 15.8125 9.769531 15.8125 C 9.78125 15.808594 9.792969 15.808594 9.804688 15.804688 C 9.816406 15.804688 9.828125 15.800781 9.839844 15.800781 C 9.863281 15.796875 9.863281 15.796875 9.875 15.78125 C 9.910156 15.78125 9.945312 15.78125 9.976562 15.78125 C 9.976562 15.773438 9.976562 15.765625 9.976562 15.757812 C 9.992188 15.757812 10.003906 15.753906 10.015625 15.753906 C 10.058594 15.746094 10.09375 15.734375 10.132812 15.714844 C 10.171875 15.699219 10.210938 15.695312 10.25 15.6875 C 10.3125 15.675781 10.371094 15.652344 10.429688 15.632812 C 10.480469 15.613281 10.523438 15.597656 10.578125 15.605469 C 10.578125 15.597656 10.578125 15.585938 10.578125 15.578125 C 10.585938 15.578125 10.59375 15.574219 10.601562 15.570312 C 10.671875 15.550781 10.671875 15.550781 10.742188 15.527344 C 10.769531 15.515625 10.769531 15.515625 10.808594 15.515625 C 10.808594 15.507812 10.808594 15.5 10.808594 15.488281 C 10.816406 15.488281 10.828125 15.484375 10.839844 15.480469 C 10.917969 15.457031 10.988281 15.433594 11.0625 15.398438 C 11.082031 15.390625 11.105469 15.382812 11.125 15.375 C 11.179688 15.355469 11.230469 15.328125 11.277344 15.296875 C 11.300781 15.289062 11.320312 15.28125 11.34375 15.273438 C 11.375 15.257812 11.402344 15.246094 11.433594 15.230469 C 11.441406 15.226562 11.449219 15.222656 11.460938 15.21875 C 11.523438 15.191406 11.582031 15.160156 11.640625 15.125 C 11.675781 15.105469 11.675781 15.105469 11.71875 15.089844 C 11.765625 15.066406 11.808594 15.042969 11.851562 15.019531 C 11.902344 14.988281 11.953125 14.960938 12.003906 14.9375 C 12.046875 14.921875 12.046875 14.921875 12.058594 14.890625 C 12.078125 14.878906 12.101562 14.867188 12.121094 14.855469 C 12.167969 14.832031 12.207031 14.808594 12.246094 14.777344 C 12.285156 14.75 12.285156 14.75 12.335938 14.734375 C 12.378906 14.730469 12.378906 14.730469 12.390625 14.699219 C 12.394531 14.691406 12.398438 14.683594 12.402344 14.671875 C 12.425781 14.660156 12.453125 14.648438 12.476562 14.636719 C 12.488281 14.625 12.488281 14.625 12.5 14.613281 C 12.515625 14.597656 12.515625 14.597656 12.566406 14.597656 C 12.566406 14.589844 12.566406 14.578125 12.566406 14.570312 C 12.578125 14.570312 12.585938 14.570312 12.59375 14.570312 C 12.597656 14.5625 12.597656 14.554688 12.601562 14.546875 C 12.625 14.511719 12.648438 14.5 12.683594 14.480469 C 12.691406 14.472656 12.691406 14.472656 12.703125 14.460938 C 12.722656 14.445312 12.722656 14.445312 12.75 14.433594 C 12.792969 14.414062 12.820312 14.386719 12.855469 14.355469 C 12.898438 14.3125 12.9375 14.28125 12.988281 14.253906 C 13 14.242188 13.011719 14.230469 13.023438 14.21875 C 13.03125 14.207031 13.042969 14.199219 13.050781 14.1875 C 13.0625 14.1875 13.070312 14.1875 13.078125 14.1875 C 13.078125 14.179688 13.078125 14.171875 13.078125 14.164062 C 13.09375 14.164062 13.113281 14.164062 13.128906 14.164062 C 13.128906 14.152344 13.128906 14.144531 13.128906 14.136719 C 13.136719 14.136719 13.144531 14.136719 13.15625 14.136719 C 13.160156 14.125 13.160156 14.125 13.164062 14.113281 C 13.183594 14.082031 13.203125 14.070312 13.234375 14.050781 C 13.273438 14.023438 13.300781 13.984375 13.332031 13.945312 C 13.359375 13.921875 13.359375 13.921875 13.390625 13.910156 C 13.425781 13.894531 13.445312 13.875 13.472656 13.847656 C 13.484375 13.839844 13.492188 13.828125 13.503906 13.820312 C 13.511719 13.808594 13.523438 13.800781 13.535156 13.789062 C 13.542969 13.777344 13.554688 13.765625 13.566406 13.757812 C 13.589844 13.734375 13.609375 13.710938 13.632812 13.6875 C 13.667969 13.65625 13.699219 13.621094 13.734375 13.585938 C 13.757812 13.566406 13.777344 13.542969 13.800781 13.519531 C 13.816406 13.507812 13.816406 13.507812 13.832031 13.492188 C 13.839844 13.480469 13.851562 13.472656 13.859375 13.460938 C 13.867188 13.453125 13.875 13.445312 13.886719 13.4375 C 13.910156 13.40625 13.925781 13.378906 13.945312 13.347656 C 13.964844 13.324219 13.984375 13.304688 14.003906 13.285156 C 14.015625 13.273438 14.023438 13.265625 14.035156 13.253906 C 14.0625 13.230469 14.0625 13.230469 14.085938 13.230469 C 14.085938 13.222656 14.089844 13.214844 14.089844 13.207031 C 14.101562 13.171875 14.121094 13.15625 14.148438 13.128906 C 14.152344 13.117188 14.160156 13.105469 14.164062 13.089844 C 14.171875 13.089844 14.179688 13.089844 14.1875 13.089844 C 14.191406 13.082031 14.191406 13.082031 14.195312 13.070312 C 14.21875 13.03125 14.246094 13.007812 14.277344 12.976562 C 14.296875 12.945312 14.3125 12.917969 14.328125 12.886719 C 14.34375 12.859375 14.359375 12.84375 14.386719 12.824219 C 14.425781 12.792969 14.441406 12.769531 14.457031 12.722656 C 14.472656 12.703125 14.488281 12.6875 14.507812 12.667969 C 14.519531 12.648438 14.53125 12.628906 14.546875 12.605469 C 14.558594 12.585938 14.570312 12.570312 14.585938 12.550781 C 14.59375 12.539062 14.59375 12.539062 14.605469 12.523438 C 14.609375 12.515625 14.617188 12.511719 14.621094 12.503906 C 14.628906 12.503906 14.640625 12.503906 14.648438 12.503906 C 14.652344 12.484375 14.65625 12.460938 14.660156 12.441406 C 14.671875 12.4375 14.6875 12.433594 14.699219 12.425781 C 14.699219 12.417969 14.699219 12.410156 14.699219 12.402344 C 14.714844 12.347656 14.742188 12.304688 14.773438 12.261719 C 14.785156 12.261719 14.792969 12.261719 14.800781 12.261719 C 14.800781 12.253906 14.804688 12.246094 14.804688 12.238281 C 14.8125 12.210938 14.824219 12.1875 14.839844 12.160156 C 14.847656 12.160156 14.855469 12.160156 14.863281 12.160156 C 14.867188 12.148438 14.867188 12.136719 14.867188 12.125 C 14.878906 12.082031 14.882812 12.070312 14.914062 12.042969 C 14.917969 12.03125 14.925781 12.019531 14.929688 12.007812 C 14.9375 12.007812 14.945312 12.007812 14.953125 12.007812 C 14.957031 11.984375 14.960938 11.964844 14.964844 11.941406 C 14.976562 11.941406 14.984375 11.941406 14.992188 11.941406 C 14.992188 11.933594 14.996094 11.925781 14.996094 11.914062 C 15.007812 11.871094 15.023438 11.835938 15.042969 11.796875 C 15.054688 11.777344 15.054688 11.777344 15.066406 11.757812 C 15.074219 11.742188 15.074219 11.742188 15.082031 11.726562 C 15.089844 11.726562 15.097656 11.726562 15.105469 11.726562 C 15.109375 11.71875 15.109375 11.710938 15.109375 11.707031 C 15.121094 11.664062 15.140625 11.625 15.15625 11.585938 C 15.167969 11.585938 15.175781 11.585938 15.183594 11.585938 C 15.1875 11.578125 15.1875 11.570312 15.191406 11.5625 C 15.207031 11.511719 15.226562 11.457031 15.246094 11.40625 C 15.253906 11.40625 15.265625 11.40625 15.273438 11.40625 C 15.273438 11.398438 15.273438 11.394531 15.277344 11.386719 C 15.292969 11.3125 15.316406 11.246094 15.347656 11.175781 C 15.359375 11.175781 15.367188 11.175781 15.375 11.175781 C 15.375 11.160156 15.378906 11.144531 15.378906 11.128906 C 15.382812 11.089844 15.390625 11.058594 15.414062 11.023438 C 15.421875 11.023438 15.429688 11.023438 15.4375 11.023438 C 15.441406 11.015625 15.441406 11.007812 15.445312 10.996094 C 15.445312 10.984375 15.449219 10.972656 15.449219 10.960938 C 15.453125 10.949219 15.453125 10.941406 15.457031 10.929688 C 15.464844 10.894531 15.464844 10.894531 15.476562 10.859375 C 15.484375 10.859375 15.492188 10.859375 15.503906 10.859375 C 15.507812 10.824219 15.511719 10.789062 15.515625 10.757812 C 15.523438 10.757812 15.53125 10.757812 15.539062 10.757812 C 15.542969 10.738281 15.542969 10.722656 15.546875 10.707031 C 15.550781 10.671875 15.554688 10.636719 15.566406 10.601562 C 15.574219 10.601562 15.582031 10.601562 15.589844 10.601562 C 15.597656 10.566406 15.601562 10.527344 15.605469 10.488281 C 15.613281 10.488281 15.621094 10.488281 15.628906 10.488281 C 15.628906 10.476562 15.628906 10.476562 15.628906 10.460938 C 15.628906 10.417969 15.640625 10.386719 15.65625 10.347656 C 15.683594 10.269531 15.703125 10.191406 15.722656 10.109375 C 15.730469 10.078125 15.730469 10.078125 15.746094 10.066406 C 15.75 10.035156 15.753906 10.007812 15.757812 9.976562 C 15.761719 9.960938 15.761719 9.945312 15.765625 9.925781 C 15.765625 9.914062 15.769531 9.902344 15.769531 9.886719 C 15.789062 9.882812 15.789062 9.882812 15.808594 9.875 C 15.808594 9.859375 15.808594 9.847656 15.8125 9.832031 C 15.8125 9.8125 15.8125 9.792969 15.8125 9.773438 C 15.816406 9.761719 15.816406 9.761719 15.816406 9.746094 C 15.820312 9.671875 15.820312 9.671875 15.835938 9.660156 C 15.835938 9.640625 15.839844 9.621094 15.84375 9.605469 C 15.84375 9.59375 15.847656 9.582031 15.847656 9.570312 C 15.851562 9.5625 15.851562 9.550781 15.851562 9.539062 C 15.855469 9.515625 15.859375 9.492188 15.863281 9.46875 C 15.863281 9.460938 15.867188 9.449219 15.867188 9.441406 C 15.871094 9.417969 15.871094 9.417969 15.886719 9.402344 C 15.890625 9.363281 15.890625 9.320312 15.894531 9.277344 C 15.898438 9.238281 15.898438 9.238281 15.921875 9.199219 C 15.925781 9.152344 15.929688 9.105469 15.929688 9.058594 C 15.933594 8.984375 15.933594 8.984375 15.960938 8.957031 C 15.964844 8.925781 15.964844 8.925781 15.96875 8.894531 C 15.96875 8.878906 15.96875 8.867188 15.96875 8.855469 C 15.96875 8.839844 15.96875 8.828125 15.96875 8.816406 C 15.96875 8.800781 15.96875 8.789062 15.972656 8.773438 C 15.972656 8.742188 15.972656 8.710938 15.972656 8.675781 Z M 15.972656 8.675781 "/>
<path style=" stroke:none;fill-rule:nonzero;fill:rgb(98.431373%,98.823529%,98.823529%);fill-opacity:1;" d="M 5.402344 6.65625 C 5.457031 6.6875 5.5 6.722656 5.539062 6.773438 C 5.566406 6.890625 5.546875 6.996094 5.523438 7.109375 C 5.507812 7.171875 5.5 7.234375 5.496094 7.300781 C 5.492188 7.355469 5.476562 7.398438 5.460938 7.453125 C 5.457031 7.480469 5.453125 7.511719 5.449219 7.539062 C 5.640625 7.539062 5.835938 7.539062 6.035156 7.539062 C 6.039062 7.5 6.042969 7.457031 6.046875 7.414062 C 6.050781 7.390625 6.054688 7.367188 6.058594 7.34375 C 6.070312 7.273438 6.082031 7.199219 6.09375 7.125 C 6.09375 7.109375 6.09375 7.109375 6.097656 7.089844 C 6.105469 7.042969 6.113281 6.992188 6.117188 6.941406 C 6.128906 6.832031 6.15625 6.757812 6.242188 6.6875 C 6.320312 6.632812 6.390625 6.621094 6.480469 6.636719 C 6.558594 6.660156 6.617188 6.707031 6.660156 6.777344 C 6.6875 6.867188 6.671875 6.957031 6.65625 7.046875 C 6.652344 7.0625 6.652344 7.0625 6.652344 7.078125 C 6.644531 7.109375 6.640625 7.140625 6.636719 7.167969 C 6.628906 7.210938 6.621094 7.25 6.613281 7.292969 C 6.613281 7.300781 6.609375 7.3125 6.609375 7.320312 C 6.597656 7.390625 6.589844 7.457031 6.582031 7.527344 C 6.59375 7.527344 6.601562 7.527344 6.613281 7.527344 C 6.652344 7.527344 6.695312 7.527344 6.738281 7.527344 C 6.75 7.523438 6.765625 7.523438 6.78125 7.523438 C 6.882812 7.523438 6.953125 7.535156 7.039062 7.589844 C 7.09375 7.644531 7.109375 7.695312 7.113281 7.769531 C 7.109375 7.839844 7.097656 7.894531 7.046875 7.945312 C 6.976562 8.011719 6.925781 8.03125 6.824219 8.027344 C 6.816406 8.027344 6.804688 8.027344 6.796875 8.027344 C 6.765625 8.027344 6.734375 8.027344 6.703125 8.027344 C 6.679688 8.027344 6.660156 8.027344 6.636719 8.027344 C 6.585938 8.027344 6.535156 8.027344 6.480469 8.027344 C 6.480469 8.035156 6.484375 8.046875 6.484375 8.0625 C 6.484375 8.132812 6.46875 8.199219 6.457031 8.269531 C 6.453125 8.285156 6.453125 8.296875 6.449219 8.3125 C 6.441406 8.359375 6.433594 8.40625 6.425781 8.453125 C 6.417969 8.484375 6.414062 8.515625 6.40625 8.546875 C 6.394531 8.625 6.378906 8.699219 6.367188 8.777344 C 6.382812 8.777344 6.382812 8.777344 6.398438 8.777344 C 6.445312 8.777344 6.492188 8.777344 6.539062 8.777344 C 6.554688 8.777344 6.570312 8.773438 6.589844 8.773438 C 6.777344 8.773438 6.777344 8.773438 6.855469 8.839844 C 6.863281 8.851562 6.871094 8.859375 6.875 8.867188 C 6.882812 8.878906 6.890625 8.886719 6.898438 8.894531 C 6.941406 8.953125 6.933594 9.015625 6.929688 9.085938 C 6.917969 9.125 6.902344 9.152344 6.878906 9.1875 C 6.871094 9.195312 6.867188 9.203125 6.859375 9.210938 C 6.820312 9.257812 6.78125 9.277344 6.71875 9.28125 C 6.652344 9.285156 6.585938 9.285156 6.519531 9.28125 C 6.496094 9.28125 6.472656 9.28125 6.449219 9.28125 C 6.390625 9.28125 6.335938 9.277344 6.277344 9.277344 C 6.277344 9.285156 6.277344 9.292969 6.273438 9.304688 C 6.269531 9.367188 6.261719 9.429688 6.246094 9.492188 C 6.234375 9.554688 6.222656 9.617188 6.214844 9.679688 C 6.210938 9.695312 6.210938 9.707031 6.207031 9.722656 C 6.203125 9.753906 6.199219 9.785156 6.195312 9.816406 C 6.183594 9.921875 6.160156 10.019531 6.082031 10.097656 C 6.070312 10.105469 6.058594 10.109375 6.046875 10.117188 C 6.035156 10.125 6.027344 10.132812 6.015625 10.140625 C 5.945312 10.167969 5.863281 10.171875 5.789062 10.148438 C 5.726562 10.113281 5.683594 10.0625 5.648438 10 C 5.605469 9.835938 5.667969 9.636719 5.699219 9.476562 C 5.699219 9.460938 5.703125 9.441406 5.707031 9.425781 C 5.710938 9.410156 5.710938 9.394531 5.714844 9.378906 C 5.71875 9.363281 5.71875 9.351562 5.722656 9.335938 C 5.730469 9.300781 5.730469 9.300781 5.742188 9.277344 C 5.546875 9.277344 5.355469 9.277344 5.15625 9.277344 C 5.152344 9.320312 5.144531 9.367188 5.140625 9.417969 C 5.125 9.558594 5.097656 9.699219 5.070312 9.84375 C 5.066406 9.863281 5.0625 9.886719 5.058594 9.910156 C 5.058594 9.921875 5.054688 9.933594 5.050781 9.945312 C 5.050781 9.960938 5.050781 9.960938 5.046875 9.976562 C 5.03125 10.035156 5 10.078125 4.949219 10.109375 C 4.867188 10.152344 4.789062 10.167969 4.695312 10.15625 C 4.628906 10.128906 4.566406 10.085938 4.539062 10.015625 C 4.503906 9.910156 4.535156 9.777344 4.550781 9.667969 C 4.554688 9.652344 4.558594 9.636719 4.558594 9.621094 C 4.578125 9.503906 4.59375 9.390625 4.617188 9.277344 C 4.609375 9.277344 4.597656 9.277344 4.585938 9.277344 C 4.542969 9.277344 4.503906 9.28125 4.460938 9.28125 C 4.445312 9.28125 4.425781 9.28125 4.410156 9.28125 C 4.308594 9.285156 4.226562 9.285156 4.140625 9.21875 C 4.089844 9.167969 4.066406 9.113281 4.066406 9.039062 C 4.070312 8.949219 4.085938 8.898438 4.152344 8.835938 C 4.21875 8.78125 4.269531 8.777344 4.355469 8.777344 C 4.367188 8.777344 4.375 8.777344 4.386719 8.777344 C 4.421875 8.777344 4.453125 8.777344 4.488281 8.777344 C 4.511719 8.777344 4.53125 8.777344 4.554688 8.777344 C 4.609375 8.777344 4.664062 8.777344 4.722656 8.777344 C 4.71875 8.765625 4.71875 8.765625 4.71875 8.75 C 4.71875 8.671875 4.726562 8.597656 4.742188 8.515625 C 4.777344 8.355469 4.800781 8.191406 4.824219 8.027344 C 4.8125 8.027344 4.800781 8.027344 4.785156 8.027344 C 4.742188 8.027344 4.699219 8.027344 4.652344 8.027344 C 4.632812 8.027344 4.613281 8.027344 4.597656 8.027344 C 4.566406 8.027344 4.539062 8.027344 4.511719 8.027344 C 4.488281 8.03125 4.488281 8.03125 4.460938 8.03125 C 4.398438 8.023438 4.347656 8.007812 4.300781 7.964844 C 4.296875 7.953125 4.289062 7.945312 4.28125 7.9375 C 4.277344 7.929688 4.269531 7.921875 4.265625 7.910156 C 4.222656 7.84375 4.214844 7.796875 4.222656 7.71875 C 4.246094 7.636719 4.300781 7.582031 4.375 7.539062 C 4.410156 7.53125 4.441406 7.527344 4.480469 7.527344 C 4.492188 7.527344 4.492188 7.527344 4.507812 7.527344 C 4.519531 7.527344 4.53125 7.527344 4.542969 7.527344 C 4.550781 7.527344 4.5625 7.527344 4.574219 7.527344 C 4.609375 7.527344 4.644531 7.527344 4.679688 7.527344 C 4.703125 7.527344 4.726562 7.527344 4.75 7.527344 C 4.808594 7.527344 4.867188 7.527344 4.925781 7.527344 C 4.925781 7.511719 4.925781 7.496094 4.925781 7.480469 C 4.925781 7.410156 4.933594 7.347656 4.941406 7.28125 C 4.945312 7.269531 4.945312 7.257812 4.949219 7.246094 C 4.953125 7.21875 4.957031 7.195312 4.960938 7.167969 C 4.96875 7.128906 4.972656 7.09375 4.980469 7.054688 C 4.984375 7.027344 4.988281 7.003906 4.992188 6.980469 C 4.992188 6.96875 4.996094 6.957031 4.996094 6.945312 C 5.011719 6.851562 5.03125 6.773438 5.101562 6.707031 C 5.109375 6.699219 5.117188 6.691406 5.128906 6.683594 C 5.207031 6.617188 5.3125 6.613281 5.402344 6.65625 Z M 5.402344 6.65625 "/>
<path style=" stroke:none;fill-rule:nonzero;fill:rgb(99.215686%,99.215686%,99.215686%);fill-opacity:1;" d="M 9.417969 5.105469 C 9.492188 5.164062 9.546875 5.246094 9.605469 5.320312 C 9.648438 5.375 9.691406 5.425781 9.730469 5.476562 C 9.78125 5.539062 9.832031 5.601562 9.878906 5.664062 C 9.910156 5.703125 9.941406 5.742188 9.972656 5.78125 C 9.996094 5.808594 10.019531 5.835938 10.039062 5.867188 C 10.046875 5.875 10.050781 5.882812 10.058594 5.890625 C 10.070312 5.90625 10.085938 5.921875 10.097656 5.941406 C 10.113281 5.960938 10.128906 5.976562 10.144531 5.996094 C 10.152344 5.996094 10.160156 5.996094 10.167969 5.996094 C 10.1875 5.976562 10.203125 5.957031 10.222656 5.933594 C 10.230469 5.921875 10.242188 5.910156 10.253906 5.898438 C 10.273438 5.871094 10.292969 5.84375 10.3125 5.816406 C 10.433594 5.664062 10.433594 5.664062 10.53125 5.648438 C 10.628906 5.644531 10.703125 5.671875 10.773438 5.734375 C 10.804688 5.765625 10.832031 5.800781 10.859375 5.835938 C 10.925781 5.925781 11 6.011719 11.074219 6.097656 C 11.132812 6.164062 11.1875 6.230469 11.238281 6.296875 C 11.257812 6.316406 11.273438 6.335938 11.292969 6.355469 C 11.339844 6.410156 11.363281 6.449219 11.363281 6.523438 C 11.363281 6.570312 11.355469 6.605469 11.328125 6.644531 C 11.28125 6.683594 11.25 6.703125 11.1875 6.703125 C 11.175781 6.703125 11.167969 6.703125 11.15625 6.703125 C 11.144531 6.703125 11.132812 6.703125 11.121094 6.703125 C 11.101562 6.703125 11.101562 6.703125 11.082031 6.703125 C 11.042969 6.703125 11 6.703125 10.960938 6.703125 C 10.929688 6.703125 10.902344 6.703125 10.871094 6.703125 C 10.792969 6.703125 10.710938 6.703125 10.628906 6.703125 C 10.546875 6.703125 10.460938 6.703125 10.378906 6.703125 C 10.226562 6.703125 10.078125 6.703125 9.929688 6.703125 C 9.792969 6.703125 9.65625 6.703125 9.519531 6.703125 C 9.363281 6.703125 9.203125 6.703125 9.046875 6.703125 C 8.960938 6.703125 8.878906 6.703125 8.796875 6.703125 C 8.714844 6.703125 8.636719 6.703125 8.558594 6.703125 C 8.53125 6.703125 8.5 6.703125 8.472656 6.703125 C 8.433594 6.703125 8.394531 6.703125 8.355469 6.703125 C 8.335938 6.703125 8.335938 6.703125 8.320312 6.703125 C 8.25 6.703125 8.175781 6.699219 8.117188 6.65625 C 8.074219 6.597656 8.070312 6.550781 8.070312 6.476562 C 8.085938 6.394531 8.160156 6.324219 8.210938 6.261719 C 8.21875 6.25 8.226562 6.238281 8.234375 6.230469 C 8.292969 6.152344 8.351562 6.078125 8.414062 6.003906 C 8.464844 5.941406 8.515625 5.875 8.566406 5.808594 C 8.601562 5.765625 8.636719 5.722656 8.667969 5.679688 C 8.714844 5.621094 8.757812 5.566406 8.800781 5.507812 C 8.855469 5.441406 8.90625 5.371094 8.960938 5.304688 C 8.964844 5.292969 8.972656 5.285156 8.980469 5.273438 C 9.097656 5.125 9.214844 4.984375 9.417969 5.105469 Z M 9.417969 5.105469 "/>
<path style=" stroke:none;fill-rule:nonzero;fill:rgb(57.254905%,87.843138%,72.156864%);fill-opacity:1;" d="M 7.886719 9.285156 C 7.902344 9.285156 7.914062 9.285156 7.925781 9.285156 C 7.96875 9.285156 8.011719 9.285156 8.058594 9.285156 C 8.085938 9.285156 8.117188 9.285156 8.148438 9.285156 C 8.226562 9.285156 8.300781 9.285156 8.375 9.285156 C 8.4375 9.285156 8.5 9.285156 8.558594 9.285156 C 8.734375 9.285156 8.910156 9.285156 9.082031 9.285156 C 9.097656 9.285156 9.097656 9.285156 9.113281 9.285156 C 9.125 9.285156 9.125 9.285156 9.140625 9.285156 C 9.292969 9.285156 9.445312 9.285156 9.597656 9.285156 C 9.753906 9.28125 9.910156 9.28125 10.066406 9.28125 C 10.152344 9.28125 10.242188 9.28125 10.328125 9.28125 C 10.410156 9.28125 10.496094 9.28125 10.578125 9.28125 C 10.605469 9.28125 10.636719 9.28125 10.667969 9.28125 C 10.707031 9.28125 10.75 9.28125 10.792969 9.28125 C 10.808594 9.28125 10.808594 9.28125 10.828125 9.28125 C 10.902344 9.28125 10.949219 9.296875 11.011719 9.339844 C 11.046875 9.382812 11.066406 9.414062 11.066406 9.46875 C 11.058594 9.539062 11.050781 9.566406 11 9.617188 C 10.949219 9.652344 10.917969 9.675781 10.855469 9.675781 C 10.84375 9.675781 10.832031 9.675781 10.820312 9.675781 C 10.808594 9.675781 10.796875 9.675781 10.785156 9.675781 C 10.765625 9.675781 10.765625 9.675781 10.746094 9.675781 C 10.699219 9.675781 10.65625 9.675781 10.613281 9.675781 C 10.582031 9.675781 10.550781 9.675781 10.519531 9.675781 C 10.445312 9.675781 10.371094 9.675781 10.292969 9.675781 C 10.234375 9.675781 10.171875 9.675781 10.109375 9.675781 C 9.933594 9.675781 9.761719 9.675781 9.585938 9.675781 C 9.578125 9.675781 9.566406 9.675781 9.558594 9.675781 C 9.546875 9.675781 9.539062 9.675781 9.53125 9.675781 C 9.378906 9.675781 9.226562 9.675781 9.070312 9.675781 C 8.914062 9.675781 8.757812 9.675781 8.601562 9.675781 C 8.515625 9.675781 8.425781 9.675781 8.339844 9.675781 C 8.257812 9.679688 8.171875 9.679688 8.089844 9.675781 C 8.058594 9.675781 8.03125 9.675781 8 9.679688 C 7.957031 9.679688 7.917969 9.679688 7.875 9.679688 C 7.863281 9.679688 7.851562 9.679688 7.839844 9.679688 C 7.761719 9.675781 7.71875 9.664062 7.65625 9.621094 C 7.613281 9.574219 7.601562 9.539062 7.597656 9.480469 C 7.601562 9.410156 7.621094 9.363281 7.667969 9.3125 C 7.742188 9.285156 7.808594 9.285156 7.886719 9.285156 Z M 7.886719 9.285156 "/>
<path style=" stroke:none;fill-rule:nonzero;fill:rgb(10.980392%,45.882353%,28.235295%);fill-opacity:1;" d="M 7.859375 8.3125 C 7.875 8.3125 7.886719 8.3125 7.902344 8.3125 C 7.945312 8.3125 7.988281 8.3125 8.03125 8.3125 C 8.0625 8.3125 8.09375 8.3125 8.125 8.3125 C 8.199219 8.3125 8.277344 8.3125 8.351562 8.3125 C 8.414062 8.3125 8.476562 8.3125 8.535156 8.3125 C 8.546875 8.3125 8.554688 8.3125 8.5625 8.3125 C 8.582031 8.3125 8.597656 8.3125 8.617188 8.3125 C 8.785156 8.3125 8.949219 8.3125 9.117188 8.3125 C 9.261719 8.3125 9.40625 8.3125 9.546875 8.3125 C 9.714844 8.3125 9.882812 8.3125 10.046875 8.3125 C 10.066406 8.3125 10.082031 8.3125 10.101562 8.3125 C 10.113281 8.3125 10.113281 8.3125 10.128906 8.3125 C 10.1875 8.3125 10.25 8.3125 10.3125 8.3125 C 10.394531 8.3125 10.476562 8.3125 10.5625 8.3125 C 10.589844 8.3125 10.621094 8.3125 10.652344 8.3125 C 10.695312 8.3125 10.734375 8.3125 10.777344 8.3125 C 10.789062 8.3125 10.800781 8.3125 10.8125 8.3125 C 10.890625 8.3125 10.945312 8.328125 11.011719 8.371094 C 11.054688 8.414062 11.058594 8.453125 11.066406 8.515625 C 11.058594 8.585938 11.03125 8.621094 10.976562 8.667969 C 10.9375 8.695312 10.90625 8.703125 10.855469 8.703125 C 10.84375 8.703125 10.832031 8.703125 10.820312 8.703125 C 10.808594 8.703125 10.796875 8.703125 10.785156 8.703125 C 10.773438 8.703125 10.761719 8.703125 10.746094 8.703125 C 10.703125 8.703125 10.660156 8.703125 10.617188 8.703125 C 10.585938 8.703125 10.554688 8.703125 10.523438 8.703125 C 10.441406 8.703125 10.355469 8.703125 10.273438 8.703125 C 10.21875 8.703125 10.167969 8.703125 10.113281 8.703125 C 9.96875 8.703125 9.824219 8.703125 9.679688 8.703125 C 9.664062 8.703125 9.664062 8.703125 9.648438 8.703125 C 9.640625 8.703125 9.632812 8.703125 9.621094 8.703125 C 9.601562 8.703125 9.582031 8.703125 9.566406 8.703125 C 9.550781 8.703125 9.550781 8.703125 9.535156 8.703125 C 9.382812 8.703125 9.230469 8.707031 9.082031 8.707031 C 8.925781 8.707031 8.769531 8.707031 8.613281 8.707031 C 8.523438 8.707031 8.4375 8.707031 8.347656 8.707031 C 8.265625 8.707031 8.183594 8.707031 8.101562 8.707031 C 8.070312 8.707031 8.042969 8.707031 8.011719 8.707031 C 7.96875 8.707031 7.929688 8.707031 7.886719 8.707031 C 7.875 8.707031 7.863281 8.707031 7.851562 8.707031 C 7.78125 8.707031 7.730469 8.699219 7.667969 8.664062 C 7.613281 8.605469 7.601562 8.554688 7.601562 8.476562 C 7.609375 8.414062 7.644531 8.382812 7.6875 8.34375 C 7.746094 8.3125 7.792969 8.3125 7.859375 8.3125 Z M 7.859375 8.3125 "/>
<path style=" stroke:none;fill-rule:nonzero;fill:rgb(63.137257%,93.725491%,76.47059%);fill-opacity:1;" d="M 7.847656 10.242188 C 7.863281 10.242188 7.863281 10.242188 7.878906 10.242188 C 7.914062 10.242188 7.949219 10.242188 7.984375 10.242188 C 8.007812 10.242188 8.035156 10.242188 8.058594 10.242188 C 8.140625 10.242188 8.222656 10.242188 8.304688 10.242188 C 8.332031 10.242188 8.359375 10.242188 8.390625 10.242188 C 8.507812 10.242188 8.625 10.242188 8.742188 10.242188 C 8.910156 10.242188 9.078125 10.242188 9.246094 10.238281 C 9.367188 10.238281 9.484375 10.238281 9.601562 10.238281 C 9.671875 10.238281 9.742188 10.238281 9.816406 10.238281 C 9.882812 10.238281 9.949219 10.238281 10.015625 10.238281 C 10.039062 10.238281 10.0625 10.238281 10.085938 10.238281 C 10.121094 10.238281 10.15625 10.238281 10.1875 10.238281 C 10.203125 10.238281 10.203125 10.238281 10.21875 10.238281 C 10.300781 10.238281 10.363281 10.273438 10.425781 10.335938 C 10.441406 10.390625 10.449219 10.445312 10.4375 10.5 C 10.402344 10.554688 10.363281 10.59375 10.308594 10.628906 C 10.273438 10.632812 10.242188 10.632812 10.207031 10.632812 C 10.191406 10.632812 10.191406 10.632812 10.175781 10.632812 C 10.140625 10.632812 10.105469 10.632812 10.070312 10.632812 C 10.046875 10.632812 10.019531 10.632812 9.996094 10.632812 C 9.925781 10.632812 9.859375 10.632812 9.789062 10.632812 C 9.734375 10.632812 9.675781 10.632812 9.621094 10.632812 C 9.484375 10.632812 9.351562 10.632812 9.214844 10.632812 C 9.078125 10.632812 8.9375 10.632812 8.800781 10.632812 C 8.679688 10.632812 8.5625 10.632812 8.441406 10.632812 C 8.371094 10.632812 8.300781 10.632812 8.226562 10.632812 C 8.160156 10.636719 8.09375 10.636719 8.027344 10.632812 C 8.003906 10.632812 7.976562 10.632812 7.953125 10.636719 C 7.917969 10.636719 7.886719 10.636719 7.851562 10.632812 C 7.839844 10.636719 7.839844 10.636719 7.824219 10.636719 C 7.753906 10.632812 7.714844 10.617188 7.65625 10.578125 C 7.613281 10.53125 7.601562 10.492188 7.59375 10.433594 C 7.597656 10.363281 7.621094 10.328125 7.667969 10.277344 C 7.722656 10.238281 7.785156 10.242188 7.847656 10.242188 Z M 7.847656 10.242188 "/>
<path style=" stroke:none;fill-rule:nonzero;fill:rgb(98.823529%,99.215686%,98.823529%);fill-opacity:1;" d="M 11.140625 4.285156 C 11.226562 4.339844 11.28125 4.402344 11.332031 4.492188 C 11.335938 4.5 11.339844 4.507812 11.34375 4.515625 C 11.386719 4.609375 11.371094 4.765625 11.34375 4.867188 C 11.332031 4.898438 11.3125 4.921875 11.292969 4.949219 C 11.277344 4.96875 11.277344 4.96875 11.265625 4.984375 C 11.183594 5.085938 11.105469 5.140625 10.972656 5.15625 C 10.820312 5.167969 10.714844 5.152344 10.589844 5.058594 C 10.507812 4.984375 10.441406 4.878906 10.429688 4.769531 C 10.425781 4.628906 10.4375 4.503906 10.53125 4.394531 C 10.570312 4.355469 10.609375 4.320312 10.652344 4.285156 C 10.660156 4.28125 10.667969 4.273438 10.679688 4.265625 C 10.816406 4.179688 11.003906 4.210938 11.140625 4.285156 Z M 11.140625 4.285156 "/>
<path style=" stroke:none;fill-rule:nonzero;fill:rgb(17.647059%,68.235296%,46.27451%);fill-opacity:1;" d="M 5.359375 8.027344 C 5.550781 8.027344 5.746094 8.027344 5.945312 8.027344 C 5.929688 8.183594 5.929688 8.183594 5.917969 8.261719 C 5.917969 8.269531 5.917969 8.277344 5.914062 8.289062 C 5.910156 8.304688 5.910156 8.324219 5.90625 8.339844 C 5.902344 8.367188 5.898438 8.390625 5.894531 8.417969 C 5.871094 8.558594 5.871094 8.558594 5.855469 8.617188 C 5.839844 8.675781 5.839844 8.675781 5.832031 8.777344 C 5.636719 8.777344 5.445312 8.777344 5.242188 8.777344 C 5.273438 8.5 5.273438 8.5 5.292969 8.402344 C 5.320312 8.277344 5.339844 8.152344 5.359375 8.027344 Z M 5.359375 8.027344 "/>
<path style=" stroke:none;fill-rule:nonzero;fill:rgb(89.019608%,90.980393%,89.803922%);fill-opacity:1;" d="M 2.792969 1.9375 C 2.808594 1.945312 2.820312 1.949219 2.832031 1.953125 C 2.824219 1.953125 2.816406 1.953125 2.808594 1.953125 C 2.804688 1.960938 2.800781 1.964844 2.796875 1.972656 C 2.777344 2.011719 2.75 2.039062 2.71875 2.070312 C 2.710938 2.082031 2.699219 2.09375 2.6875 2.105469 C 2.652344 2.128906 2.652344 2.128906 2.617188 2.132812 C 2.605469 2.132812 2.605469 2.132812 2.589844 2.128906 C 2.617188 2.089844 2.636719 2.078125 2.679688 2.054688 C 2.699219 2.035156 2.722656 2.015625 2.742188 1.996094 C 2.757812 1.980469 2.757812 1.980469 2.769531 1.964844 C 2.777344 1.957031 2.785156 1.949219 2.792969 1.9375 Z M 2.792969 1.9375 "/>
<path style=" stroke:none;fill-rule:nonzero;fill:rgb(21.176471%,69.803923%,49.019608%);fill-opacity:1;" d="M 4.300781 9.277344 C 4.40625 9.277344 4.511719 9.277344 4.617188 9.277344 C 4.617188 9.375 4.617188 9.375 4.605469 9.429688 C 4.601562 9.429688 4.597656 9.429688 4.59375 9.429688 C 4.578125 9.367188 4.582031 9.351562 4.605469 9.289062 C 4.503906 9.289062 4.402344 9.289062 4.300781 9.289062 C 4.300781 9.285156 4.300781 9.28125 4.300781 9.277344 Z M 4.300781 9.277344 "/>
<path style=" stroke:none;fill-rule:nonzero;fill:rgb(86.666667%,88.235295%,87.058824%);fill-opacity:1;" d="M 2.269531 2.4375 C 2.269531 2.492188 2.238281 2.515625 2.199219 2.554688 C 2.191406 2.566406 2.191406 2.566406 2.179688 2.574219 C 2.164062 2.59375 2.148438 2.609375 2.128906 2.628906 C 2.117188 2.625 2.105469 2.621094 2.09375 2.617188 C 2.152344 2.558594 2.210938 2.496094 2.269531 2.4375 Z M 2.269531 2.4375 "/>
<path style=" stroke:none;fill-rule:nonzero;fill:rgb(81.176472%,92.941177%,87.450981%);fill-opacity:1;" d="M 6.289062 11.839844 C 6.289062 11.878906 6.289062 11.878906 6.265625 11.910156 C 6.246094 11.925781 6.246094 11.925781 6.230469 11.941406 C 6.21875 11.953125 6.207031 11.964844 6.195312 11.976562 C 6.167969 12 6.140625 12.023438 6.113281 12.042969 C 6.101562 12.039062 6.09375 12.035156 6.085938 12.03125 C 6.152344 11.96875 6.222656 11.90625 6.289062 11.839844 Z M 6.289062 11.839844 "/>
<path style=" stroke:none;fill-rule:nonzero;fill:rgb(82.745099%,83.92157%,83.529413%);fill-opacity:1;" d="M 1.363281 3.535156 C 1.375 3.546875 1.382812 3.558594 1.390625 3.574219 C 1.375 3.609375 1.351562 3.640625 1.324219 3.671875 C 1.316406 3.683594 1.316406 3.683594 1.304688 3.695312 C 1.300781 3.699219 1.292969 3.707031 1.289062 3.714844 C 1.28125 3.707031 1.273438 3.703125 1.261719 3.699219 C 1.277344 3.660156 1.277344 3.660156 1.3125 3.636719 C 1.328125 3.613281 1.328125 3.613281 1.34375 3.582031 C 1.347656 3.574219 1.351562 3.566406 1.355469 3.554688 C 1.359375 3.546875 1.363281 3.542969 1.363281 3.535156 Z M 1.363281 3.535156 "/>
<path style=" stroke:none;fill-rule:nonzero;fill:rgb(82.352942%,83.92157%,83.529413%);fill-opacity:1;" d="M 1.835938 2.910156 C 1.847656 2.910156 1.855469 2.910156 1.863281 2.910156 C 1.863281 2.945312 1.855469 2.96875 1.828125 2.996094 C 1.808594 3.011719 1.785156 3.03125 1.761719 3.050781 C 1.753906 3.046875 1.742188 3.042969 1.734375 3.035156 C 1.746094 3.027344 1.746094 3.027344 1.753906 3.019531 C 1.761719 3.011719 1.769531 3.003906 1.777344 2.996094 C 1.789062 2.988281 1.796875 2.980469 1.804688 2.96875 C 1.828125 2.949219 1.828125 2.949219 1.835938 2.910156 Z M 1.835938 2.910156 "/>
<path style=" stroke:none;fill-rule:nonzero;fill:rgb(32.549021%,74.901962%,55.686277%);fill-opacity:1;" d="M 6.226562 9.554688 C 6.253906 9.582031 6.253906 9.582031 6.253906 9.628906 C 6.253906 9.644531 6.253906 9.65625 6.253906 9.671875 C 6.242188 9.671875 6.234375 9.671875 6.226562 9.671875 C 6.222656 9.679688 6.21875 9.6875 6.214844 9.695312 C 6.210938 9.601562 6.210938 9.601562 6.226562 9.554688 Z M 6.226562 9.554688 "/>
<path style=" stroke:none;fill-rule:nonzero;fill:rgb(80.392158%,93.725491%,88.235295%);fill-opacity:1;" d="M 6.265625 6.671875 C 6.273438 6.675781 6.28125 6.679688 6.289062 6.6875 C 6.253906 6.722656 6.214844 6.761719 6.175781 6.800781 C 6.175781 6.75 6.195312 6.734375 6.226562 6.699219 C 6.238281 6.691406 6.25 6.683594 6.265625 6.671875 Z M 6.265625 6.671875 "/>
<path style=" stroke:none;fill-rule:nonzero;fill:rgb(82.745099%,94.117647%,89.803922%);fill-opacity:1;" d="M 4.351562 7.554688 C 4.359375 7.558594 4.367188 7.5625 4.375 7.566406 C 4.339844 7.605469 4.300781 7.640625 4.261719 7.679688 C 4.261719 7.644531 4.261719 7.644531 4.292969 7.609375 C 4.304688 7.601562 4.3125 7.589844 4.324219 7.578125 C 4.332031 7.570312 4.34375 7.5625 4.351562 7.554688 Z M 4.351562 7.554688 "/>
<path style=" stroke:none;fill-rule:nonzero;fill:rgb(88.235295%,96.862745%,93.333334%);fill-opacity:1;" d="M 10.449219 5.679688 C 10.457031 5.683594 10.464844 5.6875 10.476562 5.691406 C 10.4375 5.726562 10.398438 5.765625 10.359375 5.804688 C 10.351562 5.800781 10.34375 5.796875 10.335938 5.792969 C 10.371094 5.75 10.402344 5.710938 10.449219 5.679688 Z M 10.449219 5.679688 "/>
<path style=" stroke:none;fill-rule:nonzero;fill:rgb(77.64706%,78.431374%,78.039217%);fill-opacity:1;" d="M 14.429688 12.746094 C 14.433594 12.757812 14.4375 12.773438 14.445312 12.785156 C 14.414062 12.808594 14.382812 12.835938 14.355469 12.859375 C 14.355469 12.824219 14.355469 12.824219 14.378906 12.796875 C 14.40625 12.773438 14.40625 12.773438 14.429688 12.773438 C 14.429688 12.761719 14.429688 12.753906 14.429688 12.746094 Z M 14.429688 12.746094 "/>
<path style=" stroke:none;fill-rule:nonzero;fill:rgb(43.137255%,78.823531%,62.352943%);fill-opacity:1;" d="M 5.089844 9.660156 C 5.09375 9.660156 5.097656 9.660156 5.105469 9.660156 C 5.125 9.730469 5.105469 9.78125 5.078125 9.851562 C 5.0625 9.804688 5.066406 9.773438 5.078125 9.726562 C 5.078125 9.714844 5.082031 9.699219 5.085938 9.6875 C 5.085938 9.679688 5.089844 9.667969 5.089844 9.660156 Z M 5.089844 9.660156 "/>
<path style=" stroke:none;fill-rule:nonzero;fill:rgb(90.980393%,92.156863%,91.37255%);fill-opacity:1;" d="M 1.3125 12.390625 C 1.328125 12.390625 1.339844 12.390625 1.351562 12.390625 C 1.355469 12.398438 1.355469 12.402344 1.355469 12.410156 C 1.367188 12.441406 1.375 12.464844 1.390625 12.492188 C 1.378906 12.496094 1.378906 12.496094 1.363281 12.503906 C 1.339844 12.464844 1.324219 12.433594 1.3125 12.390625 Z M 1.3125 12.390625 "/>
<path style=" stroke:none;fill-rule:nonzero;fill:rgb(69.411767%,88.235295%,79.215688%);fill-opacity:1;" d="M 10.921875 11.535156 C 10.929688 11.539062 10.9375 11.542969 10.949219 11.546875 C 10.933594 11.566406 10.933594 11.566406 10.910156 11.585938 C 10.863281 11.585938 10.863281 11.585938 10.820312 11.585938 C 10.855469 11.5625 10.882812 11.546875 10.921875 11.535156 Z M 10.921875 11.535156 "/>
<path style=" stroke:none;fill-rule:nonzero;fill:rgb(33.725491%,73.725492%,56.078434%);fill-opacity:1;" d="M 6.199219 9.710938 C 6.207031 9.710938 6.210938 9.710938 6.214844 9.710938 C 6.21875 9.742188 6.222656 9.777344 6.226562 9.8125 C 6.21875 9.8125 6.210938 9.8125 6.199219 9.8125 C 6.195312 9.828125 6.191406 9.84375 6.1875 9.863281 C 6.1875 9.753906 6.1875 9.753906 6.199219 9.710938 Z M 6.199219 9.710938 "/>
<path style=" stroke:none;fill-rule:nonzero;fill:rgb(28.627452%,72.941178%,53.333336%);fill-opacity:1;" d="M 6.621094 7.171875 C 6.652344 7.214844 6.648438 7.234375 6.648438 7.285156 C 6.636719 7.289062 6.621094 7.292969 6.609375 7.296875 C 6.613281 7.257812 6.617188 7.214844 6.621094 7.171875 Z M 6.621094 7.171875 "/>
<path style=" stroke:none;fill-rule:nonzero;fill:rgb(77.64706%,79.215688%,78.039217%);fill-opacity:1;" d="M 12.65625 1.492188 C 12.667969 1.5 12.675781 1.507812 12.6875 1.515625 C 12.714844 1.539062 12.738281 1.554688 12.773438 1.570312 C 12.703125 1.574219 12.703125 1.574219 12.671875 1.550781 C 12.65625 1.53125 12.65625 1.53125 12.65625 1.492188 Z M 12.65625 1.492188 "/>
<path style=" stroke:none;fill-rule:nonzero;fill:rgb(27.450982%,71.372551%,52.549022%);fill-opacity:1;" d="M 6.597656 7.347656 C 6.609375 7.371094 6.609375 7.371094 6.621094 7.398438 C 6.617188 7.414062 6.613281 7.425781 6.609375 7.4375 C 6.605469 7.460938 6.601562 7.480469 6.597656 7.503906 C 6.59375 7.503906 6.589844 7.503906 6.582031 7.503906 C 6.582031 7.394531 6.582031 7.394531 6.597656 7.347656 Z M 6.597656 7.347656 "/>
<path style=" stroke:none;fill-rule:nonzero;fill:rgb(87.058824%,88.627452%,87.450981%);fill-opacity:1;" d="M 11.980469 1.058594 C 12.023438 1.074219 12.058594 1.09375 12.09375 1.121094 C 12.050781 1.121094 12.050781 1.121094 12.007812 1.109375 C 11.988281 1.082031 11.988281 1.082031 11.980469 1.058594 Z M 11.980469 1.058594 "/>
</g>
</svg>
