<svg width="330" height="330" viewBox="0 0 330 330" fill="none" xmlns="http://www.w3.org/2000/svg">
<g clip-path="url(#clip0_2_12)">
<path d="M282.023 211.496C307.974 146.594 276.398 72.9411 211.496 46.9896C146.594 21.0381 72.9411 52.6143 46.9896 117.516C23.5359 176.172 47.0701 241.973 99.7254 273.253L132.561 191.134L102.723 179.203L116.306 145.233L146.144 157.164L156.497 131.274C168.273 101.821 192.323 92.5678 219.167 103.301C232.024 108.442 244.554 116.115 244.554 116.115L232.99 145.035L218.172 139.11C203.574 133.272 195.399 140.511 191.682 149.805L182.868 171.848L215.461 184.881L196.667 216.767L169.285 205.818L136.449 287.937C196.154 301.585 258.569 270.152 282.023 211.496Z" fill="#1877F2"/>
<path d="M196.667 216.767L215.46 184.881L182.868 171.848L191.682 149.805C195.399 140.51 203.573 133.272 218.172 139.11L232.99 145.035L244.554 116.115C244.554 116.115 232.024 108.442 219.166 103.301C192.323 92.5678 168.273 101.821 156.496 131.274L146.144 157.164L116.306 145.233L102.723 179.203L132.561 191.134L99.7253 273.253C105.419 276.633 111.367 279.566 117.516 282.023C123.664 284.483 129.994 286.46 136.449 287.937L169.285 205.818L196.667 216.767Z" fill="white"/>
</g>
<defs>
<clipPath id="clip0_2_12">
<rect width="253.126" height="253.126" fill="white" transform="translate(93.9793) rotate(21.7943)"/>
</clipPath>
</defs>
</svg>
