<svg width="116" height="123" viewBox="0 0 116 123" fill="none" xmlns="http://www.w3.org/2000/svg">
<g clip-path="url(#clip0_3_2)">
<path d="M81.9971 55.5802C86.2976 62.019 92.5798 67.2264 100.376 70.175L106.048 55.1798C104.572 54.6223 103.158 53.9117 101.83 53.0598L97.3663 64.8632C89.5703 61.9148 83.2889 56.7081 78.9871 50.2692L67.414 80.8704C61.6245 96.1789 44.5152 103.892 29.2 98.1C23.4855 95.9388 18.827 92.2034 15.5349 87.5732C18.6243 94.6243 24.4398 100.473 32.209 103.411C47.5254 109.203 64.6351 101.491 70.4248 86.1814L81.9978 55.5804L81.9971 55.5802ZM93.1355 42.5005C91.3674 38.0731 90.9971 33.0756 92.3462 28.2156L93.0755 26.287L88.9146 24.7133C87.7037 31.0807 89.3473 37.5334 93.1355 42.5005ZM29.6642 79.4897C28.8153 76.6486 28.926 73.607 29.9792 70.8351C32.627 63.8338 40.4531 60.3047 47.4598 62.9545C48.7657 63.4476 49.9878 64.1388 51.0832 65.0039L56.8811 49.6733C55.502 48.9242 54.0664 48.2842 52.5875 47.7607L48.0748 59.6931C46.9788 58.8277 45.756 58.1363 44.4494 57.6434C37.443 54.9936 29.6175 58.5222 26.9693 65.5245C25.0968 70.4758 26.3141 75.8359 29.6642 79.4897Z" fill="#FF004F"/>
<path d="M78.9871 50.2689C83.2893 56.7079 89.57 61.9144 97.3664 64.8629L101.83 53.0595C97.8289 50.4871 94.836 46.7573 93.1352 42.5004C89.3468 37.5329 87.7038 31.0804 88.9145 24.7133L77.985 20.5799L55.3339 80.4734C52.6683 87.4464 44.8608 90.9559 37.8692 88.3118C33.7496 86.7538 30.8315 83.4068 29.6637 79.4892C26.3141 75.8359 25.0966 70.4754 26.9688 65.5247C29.6168 58.5231 37.4426 54.9938 44.449 57.6436C45.7914 58.1512 47.0062 58.8494 48.0743 59.6933L52.5871 47.7609C37.4232 42.3812 20.6755 50.0926 14.9602 65.2049C12.1072 72.7489 12.534 80.7273 15.5349 87.574C18.8273 92.2035 23.4853 95.9395 29.2001 98.1007C44.5155 103.893 61.6249 96.1787 67.4143 80.8705L78.9871 50.2689Z" fill="black"/>
<path d="M101.83 53.0592L103.037 49.8683C99.1107 48.3898 95.6793 45.8366 93.1352 42.5004C94.8628 46.84 97.9027 50.5317 101.83 53.0598M88.9143 24.7129C89.0303 24.1046 89.1709 23.5013 89.3357 22.9044L90.0651 20.9758L74.974 15.2685L52.3226 75.1627C49.6582 82.1354 41.8507 85.6449 34.8588 83.0006C32.8756 82.2539 31.0958 81.0512 29.6631 79.4897C30.8312 83.4067 33.7494 86.7533 37.869 88.3113C44.8603 90.9554 52.6682 87.4467 55.3335 80.4736L77.9847 20.5798L88.9143 24.7129ZM52.5878 47.7608L53.8727 44.3633C52.6768 43.7142 51.4381 43.1472 50.1652 42.6661C34.8482 36.8734 17.7389 44.5872 11.95 59.8942C8.32058 69.4911 10.0017 79.7941 15.5355 87.5735C12.5344 80.7271 12.1077 72.7484 14.9607 65.2047C20.6758 50.0927 37.4233 42.3809 52.5878 47.7608Z" fill="#00F2EA"/>
</g>
<defs>
<clipPath id="clip0_3_2">
<rect width="86.3483" height="97.8164" fill="white" transform="translate(34.6014) rotate(20.7161)"/>
</clipPath>
</defs>
</svg>
