<svg width="198" height="161" viewBox="0 0 198 161" fill="none" xmlns="http://www.w3.org/2000/svg">
<g clip-path="url(#clip0_2_27)">
<path d="M189.164 60.4129C189.116 56.6192 188.075 52.9043 186.145 49.6381C184.214 46.3719 181.462 43.6683 178.162 41.7967C166.087 34.9174 113.825 21.484 113.825 21.484C113.825 21.484 61.5328 8.15713 47.6371 8.36083C43.8433 8.40911 40.1283 9.45042 36.8622 11.381C33.596 13.3117 30.8926 16.0642 29.0211 19.3647C19.1628 41.4276 8.60232 76.1931 8.46828 99.7716C8.51636 103.565 9.55741 107.28 11.4878 110.546C13.4181 113.813 16.1704 116.516 19.4706 118.388C31.5457 125.267 83.8089 138.701 83.8089 138.701C83.8089 138.701 136.071 152.134 149.966 151.931C153.76 151.882 157.475 150.841 160.741 148.911C164.008 146.98 166.711 144.228 168.583 140.928C178.665 118.887 188.973 84.0798 189.164 60.4129Z" fill="#FF0000"/>
<path d="M75.674 100.914L125.484 86.9466L88.5836 50.6907L75.674 100.914Z" fill="white"/>
</g>
<defs>
<clipPath id="clip0_2_27">
<rect width="172.774" height="121.481" fill="white" transform="translate(30.2426) rotate(14.4153)"/>
</clipPath>
</defs>
</svg>
