<svg width="330" height="330" viewBox="0 0 330 330" fill="none" xmlns="http://www.w3.org/2000/svg">
<g clip-path="url(#clip0_2_7)">
<path d="M157.203 29.1239L48.1234 95.1382C21.5456 111.223 13.0392 145.808 29.1239 172.386L95.1382 281.465C111.223 308.043 145.808 316.549 172.386 300.465L281.465 234.45C308.043 218.366 316.549 183.781 300.465 157.203L234.45 48.1234C218.366 21.5456 183.781 13.0392 157.203 29.1239Z" fill="url(#paint0_radial_2_7)"/>
<path d="M157.203 29.1239L48.1234 95.1382C21.5456 111.223 13.0392 145.808 29.1239 172.386L95.1382 281.465C111.223 308.043 145.808 316.549 172.386 300.465L281.465 234.45C308.043 218.366 316.549 183.781 300.465 157.203L234.45 48.1234C218.366 21.5456 183.781 13.0392 157.203 29.1239Z" fill="url(#paint1_radial_2_7)"/>
<path d="M116.262 84.5843C94.4793 97.7668 91.8029 99.5169 83.4836 105.083C75.1818 110.642 70.1711 115.521 66.272 120.591C62.2358 125.832 59.4198 131.281 57.6608 138.438C55.8973 145.597 55.8647 151.73 57.0013 158.247C58.0993 164.552 60.2751 171.202 65.0561 179.969C69.8512 188.756 71.4062 191.552 84.5892 213.335C97.7721 235.118 99.5177 237.785 105.083 246.105C110.644 254.406 115.523 259.416 120.591 263.317C125.834 267.352 131.282 270.168 138.44 271.927C145.597 273.691 151.734 273.73 158.246 272.588C164.55 271.483 171.197 269.307 179.971 264.532C188.762 259.743 191.551 258.185 213.333 245.003C235.117 231.819 237.785 230.074 246.104 224.508C254.406 218.949 259.423 214.066 263.326 208.994C267.36 203.754 270.166 198.303 271.922 191.144C273.686 183.986 273.718 177.853 272.582 171.336C271.466 165.041 269.291 158.391 264.527 149.613C259.733 140.826 258.183 138.038 245 116.255C231.817 94.4721 230.063 91.7994 224.501 83.4764C218.932 75.1804 214.052 70.172 208.994 66.2656C203.745 62.2338 198.298 59.4172 191.137 57.6589C183.976 55.8977 177.856 55.8573 171.338 57.0066C165.024 58.1168 158.374 60.2938 149.599 65.0708C140.808 69.8596 138.026 71.4125 116.237 84.5994L116.262 84.5843ZM117.814 103.393C119.948 102.097 122.333 100.658 125.009 99.0382C146.425 86.0775 149.009 84.6187 157.698 79.8849C165.735 75.5099 170.77 74.2477 174.262 73.6347C178.885 72.8227 182.605 72.9458 187.11 74.0559C191.616 75.1642 194.971 76.7861 198.694 79.6473C201.5 81.806 205.377 85.2588 210.466 92.8634C215.967 101.086 217.587 103.575 230.542 124.98C243.496 146.386 244.95 148.976 249.682 157.663C254.057 165.7 255.319 170.735 255.931 174.223C256.743 178.846 256.614 182.565 255.505 187.07C254.397 191.576 252.783 194.926 249.918 198.646C247.761 201.458 244.303 205.332 236.699 210.423C228.476 215.924 225.987 217.544 204.572 230.505C183.155 243.466 180.566 244.919 171.879 249.651C163.841 254.023 158.806 255.285 155.311 255.9C150.689 256.71 146.964 256.591 142.457 255.483C137.951 254.375 134.6 252.759 130.876 249.897C128.069 247.737 124.192 244.284 119.104 236.68C113.602 228.457 111.989 225.964 99.0261 204.545C86.0635 183.126 84.612 180.554 79.8791 171.866C75.5042 163.83 74.242 158.795 73.629 155.303C72.8178 150.68 72.9404 146.953 74.0495 142.446C75.1586 137.94 76.7792 134.584 79.6409 130.863C81.8007 128.049 85.258 124.176 92.8606 119.084C100.057 114.271 102.864 112.436 117.802 103.373L117.814 103.393ZM175.882 86.4449C170.569 89.6607 168.864 96.5767 172.08 101.891C175.296 107.205 182.216 108.907 187.53 105.691C192.844 102.475 194.546 95.5552 191.33 90.2416C188.114 84.928 181.194 83.2259 175.88 86.4417L175.882 86.4449ZM139.874 123.601C117.128 137.367 109.847 166.971 123.613 189.718C137.38 212.465 166.978 219.737 189.724 205.972C212.471 192.205 219.752 162.614 205.985 139.867C192.219 117.121 162.62 109.836 139.873 123.602L139.874 123.601ZM148.622 138.055C163.387 129.119 182.601 133.844 191.538 148.61C200.473 163.375 195.747 182.591 180.982 191.526C166.217 200.462 147.003 195.736 138.067 180.971C129.13 166.204 133.856 146.991 148.622 138.055Z" fill="white"/>
</g>
<defs>
<radialGradient id="paint0_radial_2_7" cx="0" cy="0" r="1" gradientUnits="userSpaceOnUse" gradientTransform="translate(188.373 312.396) rotate(-121.182) scale(237.858 221.227)">
<stop stop-color="#FFDD55"/>
<stop offset="0.1" stop-color="#FFDD55"/>
<stop offset="0.5" stop-color="#FF543E"/>
<stop offset="1" stop-color="#C837AB"/>
</radialGradient>
<radialGradient id="paint1_radial_2_7" cx="0" cy="0" r="1" gradientUnits="userSpaceOnUse" gradientTransform="translate(-25.4413 159.868) rotate(47.4979) scale(106.324 438.27)">
<stop stop-color="#3771C8"/>
<stop offset="0.128" stop-color="#3771C8"/>
<stop offset="1" stop-color="#6600FF" stop-opacity="0"/>
</radialGradient>
<clipPath id="clip0_2_7">
<rect width="240" height="240" fill="white" transform="translate(0 124.262) rotate(-31.1821)"/>
</clipPath>
</defs>
</svg>
